<svg xmlns="http://www.w3.org/2000/svg" viewBox="0 0 1024 1024">
  <path d="M904.4 569.5c35.3 0 63.9 28.7 63.9 64.2v191.1c0 35.4-28.6 64.2-63.9 64.2h-511c-35.3 0-63.9-28.7-63.9-64.2V633.6c0-35.4 28.6-64.2 63.9-64.2h511zm-31.9 64.1H425.3c-17.6 0-31.9 14.4-31.9 32.1v126.9c0 17.7 14.3 32.1 31.9 32.1h447.2c17.6 0 31.9-14.4 31.9-32.1V665.7c0-17.8-14.3-32.1-31.9-32.1zm-157.3 99c17.7 0 32.1 14.6 32.1 32.5 0 18-14.4 32.5-32.1 32.5h-61.6c-17.7 0-32.1-14.6-32.1-32.5 0-18 14.4-32.5 32.1-32.5h61.6zM530.5 158.8c141.9 0 259.4 104.6 283.3 241.7 44.9 17.3 81.8 50.9 103.6 94.3 1.1 1.7 2.3 3.4 3.1 5.2l1.4 4.7c3.1 14.2-3.6 29-16.7 35.8-14.6 7.5-32.4 2.5-41.2-11.5-18-39.2-53.7-67-95.7-74.6-4.3-.8-8.9-3.6-13.5-3.9-.4-20.9-4.3-44.1-9.9-63.2-27.4-94.3-112.6-163.7-214.4-163.7-76.4.1-147.5 39.7-188.6 105-11.5 18.2-20 38.3-26.1 59.6-10.2-2-20.8-3.3-31.7-3.3-12 0-23.7 1.5-35 4-74 16.3-129.6 83.2-129.6 163C119.9 620 161 681 223.4 706.1c12 .2 22.8 7.6 27.5 18.8 4.7 11.2 2.4 24.2-5.9 33.1-8.2 8.9-20.9 12-32.2 7.9-2.5 0-5.8-.8-8.1-1.4l-3.3-1.4-3.2-1.6c-81.7-36.2-142.5-116-142.5-209.6 0-124.1 96.9-224.9 217.9-230.6 47.4-95.9 144.2-162.5 256.9-162.5z"/>
</svg>
