<svg xmlns="http://www.w3.org/2000/svg" viewBox="0 0 1024 1024">
  <path d="M749.9 53c78.3 0 143.2 62.5 148.4 143l.3 10v336.6h-59.5V206c0-47.3-34.9-86.8-80.6-91.4l-8.6-.4H274.1c-45.9 0-84.4 35.9-88.8 83l-.4 8.8v612c0 47.3 34.9 86.8 80.6 91.4l8.6.4h258.2V971H274.1c-78.3 0-143.2-62.5-148.4-143l-.3-10V206c0-80.6 60.8-147.4 138.9-152.7l9.8-.3h475.8zm112.5 539.7c9.9 10 11.6 26 4.2 38.1l-3.2 4.2-59.5 66.4h66.4c15.6 0 28.2 13.4 28.2 29.9s-12.6 29.9-28.2 29.9H757.6V821h112.7c15.6 0 28.2 13.4 28.2 29.9s-12.6 29.9-28.2 29.9H757.6v60.3c0 16.5-12.6 29.9-28.2 29.9s-28.2-13.4-28.2-29.9v-60.3H588.5c-15.6 0-28.2-13.4-28.2-29.9s12.6-29.9 28.2-29.9h112.7v-59.8H588.5c-15.6 0-28.2-13.4-28.2-29.9s12.6-29.9 28.2-29.9h69l-59.2-66.5c-10-11.2-10.3-28.8-.6-40.4 9.7-11.6 26.1-13.4 37.8-4.3l3.8 3.6 91.3 102.5 91.9-102.6c5.1-5.8 12.2-9.1 19.7-9.3 7.5-.1 14.8 2.8 20.2 8.3zm-398.7-8.2v48.3H270.4v-48.3h193.3zm289.9-145v48.3H270.4v-48.3h483.2zm0-144.9v48.3H270.4v-48.3h483.2z"/>
</svg>
