<svg xmlns="http://www.w3.org/2000/svg" viewBox="0 0 1024 1024">
  <path d="M965 271h-59.6c-.2-3.4-.4-6.7-.4-9.9 0-21.8.1-43.5-.1-65.3-.1-19.5-9.8-29.2-29.4-29.2-242.5-.1-485-.1-727.4 0-19.5 0-29.2 9.8-29.2 29.4-.1 210.8-.1 421.5 0 632.3 0 19.5 9.7 29.1 29.5 29.1 42.3.1 84.6 0 126.8 0h10.5v57.1c-2.4.1-4.5.3-6.6.3-45.4 0-90.8.3-136.2-.2-38.4-.4-71.6-25.6-81.2-61.1-2.1-7.7-3-15.9-3-23.9-.2-211.7-.2-423.4-.1-635.1 0-47.3 35.7-83.9 83-85.4 2.5-.1 5-.1 7.5-.1h725.6c33.1 0 60.4 11.9 78 40.6 6.3 10.2 11 22.9 11.7 34.8 1.7 28.4.6 57.1.6 86.6z"/>
  <path d="M707.7 561.4c139.2 36.6 210.8 152 208.4 252.2H353.5c-5.4-85.7 57.2-212.2 208.3-252.3-45.9-32.2-68.2-75.4-62.5-131 3.7-35.9 20.5-65.5 48.3-88.5 57-47.1 139.6-39.9 189.7 15.4 45.8 50.6 51.3 149.6-29.6 204.2zM421 755.5h427c-20.1-71.2-102.2-145.2-214.6-144.8-111.9.4-193.1 74.7-212.4 144.8zm213.8-231.8c43.1-.2 77.9-34.8 78-77.5.1-42.9-35.3-78-78.6-77.9-43.2.1-78 35.3-77.7 78.6.2 42.8 35.1 77 78.3 76.8zM373.9 318.4v56.5H212.3v-56.5h161.6zm-162 272v-56.3h161.6v56.3H211.9z"/>
</svg>
