<svg xmlns="http://www.w3.org/2000/svg" viewBox="0 0 1024 1024">
  <path d="M438.6 132.5c26.8.1 51.5 14.2 65.2 37.2l48.3 81.7h273.5c65.6 0 118.9 53.4 118.9 118.9v389.3c0 65.6-53.4 118.9-118.9 118.9H198.4c-65.6 0-118.9-53.4-118.9-118.9V208.2c0-41.7 34-75.7 75.7-75.7h283.4zm387 183.8H144.4v443.3c0 29.8 24.2 54 54.1 54.1h627.2c29.8 0 54.1-24.2 54.1-54.1V370.4c-.2-29.8-24.4-54.1-54.2-54.1zm-325 75.7c59.2 0 111.5 38.7 129.8 91.1 54.6 6.8 97.9 54.6 97.9 113.8 0 59.2-45.5 107-102.4 113.8H398.2c-56.9 0-102.4-45.5-102.4-102.4 0-45.5 29.6-84.2 68.3-97.9 9-66 65.9-118.4 136.5-118.4zm0 45.5c-50.1 0-91.1 41-91.1 91.1 0 9.1 2.3 15.9 2.3 25-4.6-2.3-9.1-2.3-13.7-2.3-31.9 0-56.9 25-56.9 56.9s25 56.9 56.9 56.9h227.6c31.9-6.8 56.9-34.1 56.9-68.3 0-38.7-29.6-68.3-68.3-68.3-9.1 0-15.9 2.3-22.8 4.6v-4.6c.2-50-40.8-91-90.9-91zm-62-240.1H155.2c-5.9 0-10.8 4.9-10.8 10.8v43.3h332.4L448 202.7c-2-3.3-5.6-5.3-9.4-5.3z"/>
</svg>
