<svg xmlns="http://www.w3.org/2000/svg" viewBox="0 0 1024 1024">
  <path d="M287.3 354.4v-9.6c.1-26.2-.4-52.4.4-78.6 3-98.3 76.2-186.7 172.1-208.4 120.8-27.3 237.9 42.7 269.2 162 5 19.2 6.2 39.7 7.3 59.6 1.2 22 .3 44.1.3 66.2v8.7c4 0 7-.1 10.1 0 23.5.5 47.2-1 70.4 1.9 48.1 6 85.5 48.7 87.8 97.1.1 1.7.2 3.4.2 5.1 0 136.3.2 272.7-.1 409-.1 49.9-33.7 90.9-82.5 101.9-8 1.8-16.3 2.5-24.5 2.5-190.7.1-381.4.2-572 .1-60.9 0-106.9-45.8-107-106.7-.2-134.6-.1-269.3 0-403.9 0-55.4 37.5-98.4 92.2-106.2 6-.9 12.1-.6 18.2-.7h57.9zm223.2 64.3H226.6c-27.9 0-43.7 15.8-43.7 43.7v398.9c0 27.9 15.8 43.7 43.7 43.7h567.8c27.9 0 43.7-15.8 43.7-43.7V462.4c0-27.9-15.8-43.7-43.7-43.7H510.5zm158.7-64.4c0-20.4.2-40.2-.1-60.1-.2-14 .3-28.3-2.1-42.1-15.6-89.5-96.8-146.1-186.3-130.5-66 11.5-121 69.7-127.3 136.6-2.2 23.6-1.2 47.5-1.6 71.2-.1 8.2 0 16.4 0 24.8 106 .1 211.2.1 317.4.1z"/>
  <path d="M544 663.5c0 20.4.1 40.7 0 61.1-.1 20-14.2 34.7-33.2 34.8-19.4.1-33.7-14.7-33.7-35.1-.1-40.7-.1-81.5 0-122.2 0-20 14.1-34.7 33.2-34.8 19.4-.1 33.6 14.7 33.7 35.1.1 20.3 0 40.7 0 61.1z"/>
</svg>
