<svg xmlns="http://www.w3.org/2000/svg" viewBox="0 0 1024 1024">
  <path d="M941.2 613L827.9 497.1c-7.8-8-18.3-12.5-29.5-12.5H613.7c-25.6 0-46.5 21.2-46.5 47.3V886c0 26.1 20.9 47.3 46.5 47.3h293.1c25.6 0 46.5-21.2 46.5-47.3V642.7c0-11.1-4.3-21.8-12.1-29.7zm-43 264H622.3V541.1h170.6L898 648.6V877h.2zM666.9 653.6h79.2c15.2 0 27.6-12.5 27.6-28.2s-12.3-28.2-27.6-28.2h-79.2c-15.2 0-27.6 12.5-27.6 28.2s12.3 28.2 27.6 28.2zm-27.7 56.3c0 15.5 12.3 28.2 27.6 28.2h178.3c15.2 0 27.6-12.5 27.6-28.2s-12.4-28.1-27.6-28.1H666.9c-15.3 0-27.7 12.5-27.7 28.1zm206 56.2H666.9c-15.2 0-27.6 12.5-27.6 28.2 0 15.5 12.3 28.2 27.6 28.2h178.3c15.2 0 27.6-12.5 27.6-28.2-.1-15.5-12.5-28.2-27.6-28.2zM487.9 653.6h-58.6v-56.3h55.9c15.2 0 27.6-12.5 27.6-28.2S500.5 541 485.2 541H157.5c-17.5 0-31.7-14.5-31.7-32.4V179.4c0-17.9 14.2-32.4 31.7-32.4h488.3c17.5 0 31.7 14.5 31.7 32.4v223.2c0 15.5 12.3 28.2 27.6 28.2 15.2 0 27.6-12.5 27.6-28.2V179.4c0-48.9-39-88.7-86.9-88.7H157.6c-47.9.1-86.9 39.8-86.9 88.7v329.3c0 48.9 39 88.7 86.9 88.7h216.5v56.3H263.8c-15.2 0-27.6 12.5-27.6 28.2s12.3 28.2 27.6 28.2h224.1c15.2 0 27.6-12.5 27.6-28.2s-12.4-28.3-27.6-28.3z"/>
</svg>
