<svg xmlns="http://www.w3.org/2000/svg" viewBox="0 0 1024 1024">
  <path d="M834.5 834.5c0 59.4-48.1 107.5-107.5 107.5H189.5C130.1 942 82 893.9 82 834.5V297c0-59.4 48.1-107.5 107.5-107.5C189.5 130.1 237.6 82 297 82h537.5C893.9 82 942 130.1 942 189.5V727c0 59.4-48.1 107.5-107.5 107.5zm-698.8 0c0 29.7 24.1 53.8 53.8 53.8H727c29.7 0 53.8-24.1 53.8-53.8V458.2H135.7v376.3zm0-537.5v107.5h645.1V297c0-29.7-24.1-53.8-53.8-53.8H189.5c-29.7 0-53.8 24.1-53.8 53.8zm752.6-107.5c0-29.7-24.1-53.8-53.8-53.8H297c-29.7 0-53.8 24.1-53.8 53.8H727c59.4 0 107.5 48.1 107.5 107.5v483.8c29.7 0 53.8-24.1 53.8-53.8V189.5zM216.4 297h322.5c14.8 0 26.9 12 26.9 26.9 0 14.8-12 26.9-26.9 26.9H216.4c-14.8 0-26.9-12-26.9-26.9 0-14.9 12-26.9 26.9-26.9zm483.7 0c14.8 0 26.9 12 26.9 26.9 0 14.8-12 26.9-26.9 26.9-14.8 0-26.9-12-26.9-26.9.1-14.9 12.1-26.9 26.9-26.9z"/>
</svg>
