<svg xmlns="http://www.w3.org/2000/svg" viewBox="0 0 1024 1024">
  <path d="M324.6 318.5v-8.7c0-33.7-.1-67.3 0-101 .1-57.3 42.3-99.5 99.6-99.7 58.6-.1 117.2-.1 175.9 0 57.3.1 99.4 42.4 99.6 99.7.1 33.7 0 67.3 0 101v8.6h161c44.5 0 72.8 32.6 67.9 76.7-6.1 54.6-11.1 109.3-16.7 164-5.1 50.1-10.3 100.2-15.4 150.3-5 48.4-9.8 96.8-14.8 145.2-3.7 35.8-30.2 59.7-66.5 59.8-102.2.1-204.5 0-306.7 0-97.6 0-195.3-.8-292.9.4-36 .5-70.1-19.6-74.2-67.4-6.6-76.2-15.2-152.2-22.9-228.3-7.7-76.1-15.5-152.2-23.2-228.3-4-39.2 25.3-72.1 64.8-72.3 52.6-.3 105.1-.1 157.7-.1 1.9.1 3.8.1 6.8.1zM207 849.1h610.3c15.8-155.3 31.5-310.1 47.3-465.4H699.7v7.4c0 10.7.2 21.3-.1 32-.6 17.7-14.2 31.4-31.4 31.9-17.3.5-31.6-12.4-32.8-30.2-.7-11.1-.3-22.3-.4-33.4 0-2.5-.3-5.1-.4-7.6H389.3v9.1c-.1 11.1.1 22.3-.6 33.4-.6 10.7-6.3 18.7-15.4 24.1-21.4 12.7-47.8-2.1-48.6-27.4-.4-13-.1-26-.1-39.3h-165c15.9 155.4 31.6 310.1 47.4 465.4zm428-530.8V211.8c0-25.5-12.4-37.9-37.9-37.9h-170c-25.5 0-37.9 12.4-37.9 37.9v98.8c0 2.5.2 5.1.4 7.7H635z"/>
  <path d="M318.8 702.6h389c.2 1.6.6 3.2.6 4.8 0 14.3.2 28.6 0 42.9-.3 19.7-13.9 33-33.6 33.4H357.3c-25.9 0-38.4-12.4-38.4-38.2-.1-14-.1-28.1-.1-42.9z"/>
</svg>
