<svg xmlns="http://www.w3.org/2000/svg" viewBox="0 0 1024 1024">
  <path d="M809.2 53.2H214.8c-49.2 0-89.2 41.2-89.2 91.8v734c0 50.6 40 91.8 89.2 91.8h594.4c49.2 0 89.2-41.2 89.2-91.8V145c-.1-50.6-40.1-91.8-89.2-91.8zm-475.5 61.2h356.6v91.8H333.7v-91.8zM838.9 879c0 16.9-13.3 30.6-29.7 30.6H214.8c-16.4 0-29.7-13.7-29.7-30.6V145c0-16.9 13.3-30.6 29.7-30.6h59.4v91.8c0 33.7 26.7 61.2 59.4 61.2h356.6c32.8 0 59.4-27.4 59.4-61.2v-91.8H809c16.4 0 29.7 13.7 29.7 30.6v734zM704.3 373.5L472.7 611.8 361 496.8c-11.6-11.9-30.4-11.9-42 0-11.6 11.9-11.6 31.3 0 43.2l132.7 136.6c11.6 11.9 30.4 11.9 42 0l252.6-260c7.5-7.7 10.4-19 7.7-29.5-2.7-10.6-10.8-18.8-21-21.6-10.2-2.8-21.2.2-28.7 8z"/>
</svg>
