<svg xmlns="http://www.w3.org/2000/svg" viewBox="0 0 124.7 34">
  <path d="M46.1 12.2c0-2.7-.6-3.9-4.3-3.9-3.9 0-4.3 1.3-4.3 4.9v7.6c0 3.5.6 4.9 4.3 4.9 3.7 0 4.3-.8 4.3-4.3h2.7c0 4.3-.4 6.9-6.9 6.9s-7-2.7-7-7.5v-7.6c0-4.8 1.1-7.5 7-7.5 5.7 0 6.8 2.1 6.9 6.4l-2.7.1zm12.9 6l3.9-12.5h3.2v22.5h-2.8V17.8l.4-6.3-4.1 12.8h-1.3l-4.1-12.8.4 6.3v10.4h-2.8V5.8H55l4 12.4zM75.3 5.8c3.9 0 6.2 1.5 6.2 6v2.8c0 4.6-1.7 6.4-6.2 6.4h-3.2v7.3h-2.8V5.8h6zm-3.2 2.5v9.9h3.2c2.5 0 3.6-.7 3.6-3.8v-2.8c0-3.1-1.1-3.3-3.6-3.5l-3.2.2z" fill="#fff"/>
  <path d="M13.9 17l4.5-2.6-5.1-2.9-4.7 2.7v5.6l4.7 2.7 5.1-2.8zM.3 24.9l12.8 7.3v-4.8l-8.6-4.9zM13.1 6.7V1.8L.2 9.1l4.3 2.6zm13.4 2.4L13.6 1.8v4.9l8.6 5zm-22.2 3L0 9.7v14.8L4.3 22zm9.3 15.3v4.8l12.8-7.3-4.2-2.4zm108.3.8h-32c-1.5 0-2.9-1.2-2.9-2.9V8.6c0-1.5 1.2-2.9 2.9-2.9h32c1.5 0 2.9 1.2 2.9 2.9v16.9c-.2 1.5-1.4 2.7-2.9 2.7z" fill="#f7931e"/>
  <path d="M91.9 8H94v14.4c0 1.1.4 1.3 1.4 1.3v2.1c-2.7 0-3.6-.7-3.6-3.6V8zm8.4 1.2c0 1.6-2.7 1.7-2.7 0 .1-1.6 2.7-1.7 2.7 0zM97.9 26V12.5h2.2V26h-2.2zm5.4-15.9l2.1-.3v2.7h2.3v2h-2.3v7.7c0 1.3.6 2 2.5 1.7v2c-3.6.4-4.6-1.2-4.6-3.8v-12zM119.7 22c0 2.7-1.4 4.1-5 4.1s-5-1.3-5-5v-4c0-3.6 1.9-4.8 5-4.8s5 1.3 5 4.8v3h-7.9v1c0 2.5.9 3 2.9 3s2.9-.6 2.9-2h2.1zm-7.7-3.9h5.7v-1c0-2.3-1.1-2.9-2.9-2.9-1.7 0-2.9.5-2.9 2.9.1 0 .1 1 .1 1z" fill="#fff"/>
</svg>
