<svg xmlns="http://www.w3.org/2000/svg" viewBox="0 0 1024 1024">
  <path d="M511.9 56.7c-40.5 99.4-65 164.4-110.1 260.8 27.7 29.3 61.6 63.5 116.8 102.1-59.3-24.4-99.7-48.9-130-74.3-57.7 120.4-148.2 292.1-331.8 622C201.1 884 313 832.6 417.2 813c-4.5-19.3-7-40.1-6.8-61.8l.2-4.6C412.9 654.1 461 583 518 587.9s101.3 83.7 99 176.2c-.4 17.4-2.4 34.1-5.8 49.7C714.3 834 825 885.2 967.4 967.4c-28.1-51.7-53.1-98.3-77.1-142.6-37.7-29.2-77-67.2-157.2-108.4 55.1 14.3 94.6 30.8 125.3 49.3-243.4-453-263.1-513.2-346.5-709z" fill="#1793d1"/>
</svg>
