<svg xmlns="http://www.w3.org/2000/svg" viewBox="0 0 1024 1024">
  <path d="M518.2 473.4c-3.4-3.8-9-3.8-12.5 0 0 0-15.3 16.9-26.1 29.7-21.9 26-52.2 67.5-52.2 67.5-3 4.1-1.3 7.7 3.8 8 0 0 48.7 2.9 80.7 2.9s80.7-2.9 80.7-2.9c5.1-.3 6.8-3.9 3.8-8 0 0-30.2-41.5-52.2-67.5-10.7-12.8-26-29.7-26-29.7z" fill="#41d305"/>
  <path d="M711.1 439.9c-9.7-.4-14.7 6.7-14.9 13.5-.3 5.4 3.5 12.1 10.4 13.3 1.3.2 2.4.5 3.8.7 130.3 13.6 219.1 40.2 219.2 71 .1 30-83.9 56.3-208.8 70.5-32.6-53.2-72.5-110.2-117.9-167.8-21.4-27.2-43.1-53-64.5-77.5C649.2 240.8 746.8 166.1 775 188.2c21.8 17-3 89-58.8 183.5-1.7 3-3.2 12 3.7 16.7 6.5 4.4 15.3 2 19.1-4.2.5-.9 1.6-2.4 2.1-3.3 68.7-119.7 96.5-214 63.5-239.7-40.3-31.4-158.7 48.7-287.4 187.4-1.8 1.9-3.5 3.8-5.3 5.7-1.8-1.9-3.5-3.8-5.3-5.7-128.6-138.7-247-218.9-287.3-187.5-33 25.7-5.2 120 63.5 239.7.5.9 1.6 2.4 2.1 3.3 3.8 6.2 12.6 8.6 19.1 4.2 6.9-4.7 5.5-13.6 3.7-16.7-55.7-94.4-80.5-166.4-58.7-183.4 28.2-22 125.8 52.6 236.6 175.4-21.5 24.5-43.1 50.3-64.5 77.5-45.5 57.6-85.3 114.7-117.9 167.8-124.9-14.2-209-40.5-208.8-70.5.1-30.8 88.9-57.4 219.2-71 1.4-.2 2.5-.5 3.8-.7 6.9-1.1 10.6-7.8 10.4-13.3-.1-6.9-5.2-14-14.9-13.5-161.8 18.1-274 57.8-274.2 104-.2 43.3 97.9 81.1 243.1 101-68 118.9-95.3 212.4-62.4 238 35.6 27.7 132-31.5 242.6-141.1 3.7-3.4 6-12.2-.7-18.8-4.3-4.2-12-5.1-17.3-1.1-2.1 1.5-4.1 3.5-5.5 4.8-86.3 86.3-156.9 134.2-180.2 116-22.6-17.6 4.9-93.3 65.1-192.8 56.3 6 118.3 9.5 183.5 9.7h10.6c65.2-.3 127.2-3.7 183.5-9.7 60.2 99.5 87.8 175.1 65.1 192.8-23.3 18.2-93.9-29.7-180.2-116-1.5-1.4-3.4-3.3-5.5-4.8-5.3-3.9-13-3-17.3 1.1-6.7 6.5-4.4 15.4-.7 18.8C673 851.4 769.5 910.6 805 882.9c32.8-25.6 5.6-119.1-62.4-238 145.1-19.9 243.3-57.7 243.1-101-.5-46.2-112.8-85.9-274.6-104zM513.5 620h-3c-58.4-.1-113.9-2.5-164.3-6.8 30-46.3 65.9-96.5 106.3-147.6 18.1-23 36.3-44.9 54.2-65.9 1.8-2.1 3.5-4.2 5.3-6.2 1.8 2 3.5 4.1 5.3 6.2 18 20.9 36.1 42.9 54.2 65.9 40.4 51.1 76.3 101.3 106.3 147.6-50.4 4.2-105.9 6.7-164.3 6.8zm471.8-76.1z" fill="#6b6b6b"/>
</svg>
