<svg xmlns="http://www.w3.org/2000/svg" viewBox="0 0 1024 1024">
  <path d="M482.4 183v250.5l29.6 29.7 30.6-30.7V182.1h68.9L512 82.6 411.5 183h63.4z" fill="#efa724"/>
  <path d="M183.8 540.9h250.4l28.6-28.5-31.3-31.3H183.8v-70.4L82.5 512l101.3 101.3v-64.9z" fill="#932279"/>
  <path d="M272.5 300.9l5.3 5.3 159.9 160h29.7v-26.5L305.8 278.2l-5.2-5.3 5.2-5.3 69.6-69.6H198.8v176.6l68.4-68.4z" fill="#9ccd2a"/>
  <path d="M467.4 418.6V198h-70.8l-74.9 74.9zm-50.8 47.6L272.5 322.1l-73.7 73.7v70.4zm126 373.7V593.4l-31.2-31.2-28.6 28.5v249.2h-72.9l101.5 101.5 101.4-101.5h-62.7z" fill="#9ccd2a"/>
  <path d="M300.6 751.8l5.3-5.3 162-162v-28.6h-27.5L278.1 718.2l-5.3 5.2-5.3-5.2-68.7-68.8V825h175l-67.9-67.9z" fill="#262577"/>
  <path d="M419.3 555.9H198.8v72.4l74 74zm48.6 49.7L321.7 751.8l73.2 73.2h73z" fill="#262577"/>
  <path d="M723.4 272.9l-5.3 5.3-160.5 160.5v27.5h28l160.3-160.3 5.3-5.3 5.3 5.3 70.2 70.2v-179H647.6l70.5 70.5z" fill="#932279"/>
  <path d="M557.6 417.6l144.7-144.7-75.8-75.8h-68.9z" fill="#932279"/>
  <path d="M841.6 481.1H591.8L560.9 512l28.9 28.9h251.8v71l99.9-99.9-99.9-99.8v61.4z" fill="#262577"/>
  <path d="M751.2 723.4l-5.3-5.2-162.3-162.3h-26v31.3l159.2 159.3 5.3 5.3-5.3 5.3-67.9 67.9h177.8V647.9l-70.2 70.3z" fill="#efa724"/>
  <path d="M557.6 608.4V825h70.2l73.2-73.2zm47.1-52.5l146.5 146.4 75.5-75.5v-70.9z" fill="#efa724"/>
  <path d="M608.5 465.8h216.9v-68.5l-37.1-37.1-37.1-37.1-71.4 71.4z" fill="#932279"/>
</svg>
