<svg xmlns="http://www.w3.org/2000/svg" viewBox="0 0 1024 1024">
  <path d="M512 81.8c-237.3 0-430.3 193-430.3 430.2s193 430.2 430.3 430.2c237.2 0 430.2-193 430.2-430.2S749.2 81.8 512 81.8z" fill="#53a3da"/>
  <path d="M512 121.2c-69.2 0-127.9 110.7-149.1 264.5-.7 4.9-1.3 10-1.9 15-2.9 24.2-4.9 49.4-5.8 75.3-.5 11.9-.7 23.8-.7 36 0 12.1.2 24.1.7 36 1 25.9 2.9 51.1 5.8 75.3 32.4 4.2 67.1 7 103.3 8.4 15.6.6 31.5.9 47.7.9 16.1 0 32-.4 47.6-.9 36.2-1.4 70.9-4.2 103.4-8.4 3.6-.5 7.1-1 10.6-1.5 135.1-19 229.1-61 229.1-109.8.1-215.8-174.9-390.8-390.7-390.8z" fill="#f1606d"/>
  <path d="M673.6 402.2c-3.9-5.7-8.1-11.2-12.6-16.5-35.9-42.3-89.3-69.1-149-69.1-19.4 0-36.6 29.7-47.7 75.7-4.4 18.4-7.8 39.3-10 62-1.7 18.2-2.7 37.6-2.7 57.6s.9 39.4 2.7 57.6c18.2 1.7 37.6 2.7 57.7 2.7s39.4-.9 57.6-2.7c40.1-3.8 74.7-11.5 99.2-21.7 24.2-10 38.5-22.5 38.5-36 .1-40.5-12.4-78.3-33.7-109.6z" fill="#fff"/>
</svg>
