<svg xmlns="http://www.w3.org/2000/svg" viewBox="0 0 1024 1024">
  <g fill="#d60750">
    <path d="M588.102 539.494c-16.065.223 3.05 8.287 24.024 11.52a223.055 223.055 0 0 0 15.73-13.527c-13.052 3.16-26.366 3.234-39.754 2.007m86.278-21.516c9.594-13.192 16.548-27.648 19.002-42.624-2.156 10.665-7.92 19.844-13.387 29.58-30.048 18.915-2.827-11.223 0-22.668-32.317 40.654-4.426 24.378-5.616 35.712m31.871-82.796c1.933-28.948-5.69-19.77-8.256-8.732 2.975 1.523 5.355 20.364 8.256 8.732M527.114 39.749c8.59 1.524 18.557 2.713 17.143 4.757 9.409-2.044 11.529-3.94-17.143-4.757m17.143 4.757l-6.061 1.263 5.652-.483.41-.78"/>
    <path d="M811.827 446.145c.967 25.976-7.586 38.573-15.321 60.907l-13.909 6.95c-11.38 22.073 1.116 14.01-7.028 31.55-17.74 15.756-53.849 49.35-65.415 52.434-8.441-.186 5.69-9.96 7.55-13.787-23.764 16.314-19.078 24.49-55.41 34.374l-1.042-2.378c-89.624 42.141-214.13-41.36-212.494-155.297-.967 7.247-2.715 5.426-4.723 8.361-4.611-58.603 27.073-117.504 80.587-141.547 52.324-25.864 113.647-15.273 151.133 19.658-20.602-26.942-61.546-55.519-110.114-52.843-47.564.743-92.079 30.955-106.917 63.769-24.358 15.347-27.184 59.086-37.82 67.113-14.28 104.944 26.85 150.243 96.503 203.57 10.934 7.395 3.087 8.51 4.575 14.12-23.132-10.813-44.329-27.164-61.733-47.194 9.26 13.527 19.226 26.645 32.094 36.976-21.83-7.396-50.948-52.807-59.465-54.665 37.598 67.3 152.547 117.987 212.755 92.83-27.854 1.04-63.258.557-94.533-11-13.165-6.764-31.015-20.774-27.817-23.375 82.15 30.658 167.013 23.226 238.08-33.705 18.073-14.084 37.857-38.016 43.547-38.35-8.59 12.931 1.45 6.205-5.132 17.614 18-29.023-7.847-11.818 18.632-50.13l9.78 13.451c-3.644-24.117 29.974-53.363 26.553-91.49 7.697-11.67 8.59 12.56.409 39.353 11.342-29.766 3.012-34.523 5.913-59.086 3.16 8.25 7.288 17.02 9.408 25.715-7.4-28.763 7.587-48.42 11.268-65.143-3.644-1.636-11.417 12.709-13.164-21.257.26-14.753 4.09-7.73 5.578-11.371-2.9-1.672-10.487-12.97-15.136-34.672 3.347-5.09 8.963 13.23 13.537 13.973-2.938-17.243-7.996-30.398-8.182-43.627-13.313-27.834-4.723 3.716-15.544-11.966-14.17-44.222 11.788-10.257 13.536-30.361 21.532 31.141 33.767 79.414 39.42 99.37-4.314-24.378-11.231-47.976-19.71-70.83 6.545 2.75-10.524-50.13 8.516-15.125-20.305-74.657-86.909-144.446-148.195-177.185 7.475 6.875 16.958 15.46 13.573 16.834-30.457-18.134-25.139-19.547-29.49-27.202-24.805-10.108-26.44.818-42.878 0-46.783-24.786-55.82-22.148-98.884-37.719l1.971 9.142c-31.015-10.33-36.11 3.902-69.616.037-2.046-1.598 10.71-5.76 21.234-7.283-29.973 3.939-28.56-5.909-57.902 1.077 7.215-5.054 14.875-8.435 22.573-12.746-24.432 1.486-58.348 14.233-47.898 2.638-39.866 17.764-110.673 42.736-150.39 79.934l-1.264-8.324c-18.222 21.851-79.397 65.218-84.269 93.498l-4.871 1.152c-9.483 16.017-15.62 34.189-23.132 50.688-12.383 21.108-18.147 8.101-16.4 11.409-24.358 49.387-36.481 90.86-46.931 124.899 7.437 11.148.186 67.002 3.012 111.707C118.6 722.44 285.947 936.897 468.877 986.396c26.812 9.588 66.678 9.216 100.594 10.22-40.015-11.446-45.184-6.058-84.157-19.659-28.114-13.23-34.288-28.354-54.183-45.597l7.884 13.898c-39.048-13.786-22.723-17.094-54.481-27.164l8.404-10.963c-12.644-.966-33.544-21.33-39.233-32.59l-13.834.557c-16.624-20.513-25.512-35.303-24.88-46.749l-4.462 7.953c-5.058-8.696-61.212-76.962-32.094-61.057-5.43-4.942-12.606-8.064-20.416-22.222l5.95-6.763c-14.02-18.024-25.808-41.138-24.916-48.83 7.475 10.108 12.681 11.966 17.813 13.712-35.403-87.775-37.374-4.83-64.187-89.336l5.69-.445c-4.351-6.54-6.991-13.639-10.487-20.625l2.454-24.6c-25.474-29.395-7.103-125.16-3.421-177.706 2.566-21.368 21.272-44.11 35.515-79.748l-8.665-1.487c16.586-28.911 94.719-116.129 130.903-111.632 17.515-22-3.496-.075-6.917-5.612 38.49-39.8 50.613-28.13 76.57-35.303 28.003-16.61-24.06 6.466-10.747-6.354 48.42-12.375 34.325-28.094 97.508-34.375 6.656 3.79-15.47 5.872-21.012 10.777 40.35-19.732 127.705-15.236 184.454 10.963 65.86 30.732 139.791 121.629 142.73 207.137l3.309.892c-1.674 34.002 5.206 73.282-6.731 109.403l7.995-16.946"/>
    <path d="M412.61 561.53l-2.268 11.26c10.562 14.345 18.966 29.878 32.429 41.064-9.67-18.915-16.884-26.719-30.16-52.323m24.99-.966c-5.578-6.17-8.888-13.639-12.606-21.034 3.532 13.044 10.784 24.23 17.552 35.6l-4.946-14.566m441.983-96.025l-2.343 5.909c-4.313 30.732-13.685 61.167-28.002 89.335 15.805-29.729 26.069-62.245 30.345-95.244M530.312 32.02c10.859-3.977 26.701-2.193 38.23-4.794-15.025 1.263-29.974 2.006-44.775 3.902l6.545.891m-381.627 202.79c2.492 23.188-17.44 32.181 4.426 16.87 11.714-26.346-4.574-7.246-4.426-16.87m-25.697 107.247c5.02-15.459 5.95-24.712 7.884-33.668-13.908 17.8-6.396 21.59-7.884 33.668"/>
  </g>
</svg>
