<svg xmlns="http://www.w3.org/2000/svg" viewBox="0 0 1024 1024">
  <path d="M947.8 512c0-240.7-195.1-435.8-435.8-435.8-240.6 0-435.6 195-435.8 435.5V849c.1 54.6 44.4 98.8 99.1 98.8h336.9c240.6-.1 435.6-195.1 435.6-435.8" fill="#294172"/>
  <path d="M640 212.6c-94.4 0-171.2 76.8-171.2 171.2v141.7H327.4c-94.4 0-171.2 76.8-171.2 171.2 0 94.4 76.8 171.2 171.2 171.2 94.4 0 171.2-76.8 171.2-171.2V555.1H640c94.4 0 171.2-76.8 171.2-171.2S734.4 212.6 640 212.6zM469.5 696.8c0 78.3-63.7 142-142 142s-142-63.7-142-142 63.7-142 142-142h141.3v.3h.8v141.7zm170.5-171H498.7v-.3h-.8V383.8c0-78.3 63.7-142 142-142s142 63.7 142 142-63.6 142-141.9 142z" fill="#3c6eb4"/>
  <path d="M685.1 185.6c-15.9-4.1-28-6.1-45.2-6.1-113 0-204.5 91.6-204.5 204.5v108.4h-85.7c-26.7 0-48.3 21-48.3 47.7 0 26.5 21.4 47.6 47.8 47.6h70.9c8.4 0 15.3 6.8 15.3 15.2v93.8c-.1 59.6-48.4 107.8-108 107.8-20.2 0-25.2-2.6-38.9-2.6-28.9 0-48.3 19.4-48.3 46.1 0 22.1 18.9 41 42 47.1 15.9 4.1 28 6.1 45.2 6.1 113 0 204.5-91.6 204.5-204.5V588.1h85.7c26.7 0 48.3-21 48.3-47.7 0-26.5-21.4-47.6-47.8-47.6h-70.9c-8.4 0-15.3-6.8-15.3-15.2v-93.8c.1-59.6 48.4-107.8 108-107.8 20.2 0 25.2 2.6 38.9 2.6 28.9 0 48.3-19.4 48.3-46.1.1-21.9-18.8-40.9-42-46.9z" fill="#fff"/>
</svg>
