<svg xmlns="http://www.w3.org/2000/svg" viewBox="0 0 1024 1024">
  <path d="M1001.5 209.1c-.2-14.5-7.7-22.5-21.5-22.1-15.1.5-10.3 4.8-43 12.9-33 8.1-73.3 5.6-108.9 20.5C722 264.9 700.7 417 604.2 471.5c-72.1 40.7-144.9 44-210.3 64.5-43 13.5-90 41.1-129 74.7-30.2 26.1-31 49-62.6 81.7-33.8 35-134.3.6-179.8 54.1 14.7 14.8 21.1 19 50 15.1-6 11.3-41.3 20.9-34.4 37.6 7.3 17.6 92.6 29.5 170.1-17.4 36.1-21.8 64.9-53.2 121.1-60.7 72.8-9.7 156.6 6.2 240.9 18.4-12.5 37.3-37.6 62-57.7 91.7-6.2 6.7 12.5 7.5 33.9 3.4 38.4-9.5 66.1-17.1 95.1-34 35.6-20.7 41-73.9 84.7-85.4 24.4 37.4 90.6 46.3 131.7 16.3-36.1-10.2-46-87-33.9-120.8 11.5-32 22.9-83.2 34.5-125.6 12.5-45.5 17.1-102.7 32.2-125.9 22.7-34.8 47.8-46.8 69.6-66.4 21.9-19.7 41.8-38.8 41.2-83.7zM980 187z" fill="#002b64"/>
  <path d="M950.3 213.7c-12.3 6.9-23.6 8.4-36.4 8.8-11.1.3-23.3-.2-38.2 1.4-123.2 12.7-138.8 148.4-217.8 225.4-5.7 5.6-12 10.8-18.5 15.7-27.7 20.6-61.6 35.3-92.8 47.3-50.5 19.3-98.5 20.7-145.9 37.3-34.8 12.2-70.1 30-98.7 49.5-7.1 4.9-13.9 9.9-20.1 15-16.8 13.7-27.8 28.9-38.4 44.6-11 16.1-21.6 32.7-37.7 48.6-26.2 25.7-124 7.5-158.4 31.3-3.8 2.7-6.9 5.8-9 9.7 18.8 8.5 31.3 3.3 53 5.7 2.8 20.5-44.6 32.7-37.6 42.1 55.2 7.9 88.8 0 133.2-19.2 37.7-16.4 74.2-50.1 118.7-64.4 65.4-21 137.2 0 207.2 4.2 17 1 34 1 50.7-.8 26.1-16 25.5-75.9 50.9-81.4-.7 84.1-35.2 134.4-71.2 183.2 76-13.4 121.4-57.4 152.1-116 9.3-17.8 17.3-36.9 24.3-57 10.9 8.3 4.7 33.7 10.2 47.5 52.3-29.1 82.3-95.7 102.1-162.9 23-77.9 32.4-156.7 47.2-179.7 14.4-22.5 36.9-36.3 57.5-50.7 23.3-16.4 44.1-33.4 47.7-64.6-24.7-2.5-30.4-8.2-34.1-20.6zm-115.5 61.1c4.7-20.2 20.4-29.4 47.5-27.1 6.5 30.1-30.1 42.2-47.5 27.1zm66.3 7.7c7.7-23 28.9-47.7 39.6-58.7 4.7-4.4 5.8-1.6 2.9 1.8-7.4 7.8-31.6 33.8-39.2 57.3-1.4 4.1-5.3 5.9-3.3-.4zm12.2 2.1c4.4-23.8 21.9-42.5 30.9-54.9 4.1-5 5.5-2.4 3.2 1.3-6.2 8.8-26.5 29.1-30.8 53.5-.7 4.3-4.4 6.6-3.3.1zm17.5 2.2c-.4 4.2-3.8 6.8-3.3.3 2.4-24.1 12.9-39.2 20.9-52.3 3.6-5.3 5.3-2.8 3.3 1.1-5.5 9.3-18.7 26.2-20.9 50.9zm25.5-47.2c-4.6 9.7-13.5 22.3-13.5 47 0 4.3-3.2 7.2-3.3.6.2-24.2 6.6-34.7 13.5-48.4 3.1-5.6 5-3.3 3.3.8zM752.6 709.4c10.4 16.7 51.1 26.1 74.7 20.4-12.1-11.3-25.7-58-27.2-81.6-14.2 15.1-42.1 37.1-47.5 61.2z" fill="#c49a6c"/>
</svg>
