<svg xmlns="http://www.w3.org/2000/svg" viewBox="0 0 1024 1024">
  <path class="st0" d="M851.99 729.057c-44.1-1.2-77.7 2.9-106.5 15-8.2 3.4-21.2 3.5-22.5 13.8 4.5 4.7 5.2 11.7 8.8 17.5 6.9 11.1 18.5 26 28.8 33.8 11.3 8.5 23 17.7 35.1 25.1 21.6 13.1 45.6 20.7 66.4 33.8 12.2 7.8 24.4 17.5 36.3 26.3 5.9 4.3 9.9 11.1 17.5 13.8v-1.3c-4-5.1-5.1-12.2-8.8-17.5l-16.3-16.3c-15.9-21.1-36.1-39.7-57.6-55.1-17.1-12.3-55.5-28.9-62.6-48.9l-1.3-1.3c12.2-1.4 26.4-5.8 37.6-8.8 18.8-5.1 35.7-3.7 55.1-8.8 8.8-2.5 17.5-5 26.3-7.5v-5c-9.8-10.1-16.8-23.4-27.6-32.6-28.1-23.9-58.7-47.8-90.2-67.7-17.5-11-39.1-18.2-57.6-27.6-6.2-3.1-17.2-4.8-21.3-10-9.7-12.4-15-28.1-22.5-42.6-15.7-30.3-31.2-63.4-45.1-95.2-9.5-21.7-15.7-43.2-27.6-62.6-56.9-93.5-118.1-150-213-205.5-20.2-11.8-44.5-16.5-70.2-22.5-13.8-.8-27.6-1.7-41.3-2.5-8.4-3.5-17.2-13.8-25.1-18.8-31.4-19.9-112-63-135.3-6.3-14.7 35.8 22 70.8 35.1 89 9.2 12.7 21 27 27.6 41.3 4.3 9.4 5.1 18.9 8.8 28.8 9.1 24.5 17 51.2 28.8 73.9 6 11.5 12.5 23.6 20 33.8 4.6 6.3 12.5 9.1 13.8 18.8-7.7 10.8-8.2 27.6-12.5 41.3-19.6 61.7-12.2 138.5 16.3 184.2 8.7 14 29.3 44.1 57.6 32.6 24.8-10.1 19.2-41.3 26.3-68.9 1.6-6.3.6-10.8 3.8-15v1.3c7.5 15 15 30.1 22.6 45.1 16.7 26.9 46.3 55 71.4 73.9 13 9.8 23.3 26.8 40.1 32.6v-1.3h-1.3c-3.3-5.1-8.4-7.2-12.5-11.3-9.8-9.6-20.7-21.6-28.8-32.6-22.8-31-43-64.9-61.4-100.2-8.8-16.9-16.4-35.5-23.8-52.6-2.9-6.6-2.8-16.6-8.8-20-8.1 12.6-20 22.7-26.3 37.6-10 23.7-11.3 52.7-15 82.7-2.2.8-1.2.2-2.5 1.3-17.4-4.2-23.6-22.2-30.1-37.6-16.4-39-19.5-101.7-5-146.6 3.7-11.6 20.6-48.2 13.8-58.9-3.3-10.7-14-16.9-20-25.1-7.5-10.1-14.9-23.4-20-35.1-13.4-30.4-19.7-64.5-33.8-95.2-6.8-14.7-18.2-29.5-27.6-42.6-10.4-14.5-22-25.1-30.1-42.6-2.9-6.2-6.8-16.2-2.5-22.5 1.4-4.3 3.3-6.1 7.5-7.5 7.3-5.6 27.5 1.9 35.1 5 20.1 8.3 36.9 16.3 53.9 27.6 8.2 5.4 16.4 15.9 26.3 18.8h11.3c17.6 4.1 37.4 1.3 53.9 6.3 29.1 8.9 55.2 22.6 78.9 37.6 72.2 45.6 131.2 110.5 171.6 187.9 6.5 12.5 9.3 24.4 15 37.6 11.5 26.7 26.1 54.1 37.6 80.2 11.5 26 22.6 52.3 38.8 73.9 8.5 11.4 41.4 17.5 56.4 23.8 10.5 4.4 27.7 9 37.6 15 19 11.4 37.3 25.1 55.1 37.6 8.8 6.3 36.1 20.1 37.5 31.4z" fill="#00618a"/>
  <path class="st0" d="M292.004 251.703c-9.2-.2-15.7 1-22.6 2.5v1.3h1.3c4.4 9 12.1 14.8 17.5 22.6 4.2 8.8 8.3 17.5 12.5 26.3.4-.4.8-.8 1.3-1.2 7.8-5.5 11.3-14.2 11.3-27.6-3.1-3.3-3.6-7.4-6.3-11.3-3.6-5.2-10.5-8.2-15-12.6z" fill="#00618a"/>
</svg>
