<svg xmlns="http://www.w3.org/2000/svg" viewBox="0 0 1024 1024">
  <path d="M880.6 340.1c30.6 1.1 54.6 26.8 53.5 57.4-.6 14.8-6.8 28.5-17.6 38.6-10.8 10.1-24.9 15.4-39.8 14.9-30.5-1.1-54.5-26.8-53.5-57.4.5-14.8 6.7-28.5 17.6-38.6 10.9-10.1 25-15.4 39.8-14.9zm39 56.2c.7-21.7-16.3-40-38-40.8-10.5-.4-20.6 3.3-28.2 10.5-7.7 7.2-12.2 16.9-12.5 27.4-.7 21.7 16.3 40 38 40.8 10.6.3 20.6-3.4 28.3-10.6 7.6-7 12.1-16.8 12.4-27.3z" fill="#fff"/>
  <path d="M881.6 355.5c21.7.8 38.8 19 38 40.8-.3 10.5-4.8 20.2-12.4 27.4-7.7 7.2-17.7 10.9-28.3 10.6-21.7-.8-38.7-19.1-38-40.8.3-10.5 4.8-20.3 12.5-27.4 7.6-7.2 17.6-10.9 28.2-10.6zm23.9 31.5c0-6.5-7.8-11.7-17.5-11.7s-17.5 5.2-17.5 11.7c0 6.4 7.8 11.6 17.5 11.6s17.5-5.2 17.5-11.6z" fill="#73ba25"/>
  <path d="M888 375.3c9.7 0 17.5 5.2 17.5 11.7 0 6.4-7.8 11.6-17.5 11.6s-17.5-5.2-17.5-11.6c0-6.5 7.8-11.7 17.5-11.7z" fill="#fff"/>
  <path d="M969 472.4l4.1-.8c1.1.9 1 2.7.6 4.3-.8 3.7-2.5 10.4-3.8 13.6l-1 2.6c-1.4 3.9-2.9 7.6-5.6 9.8-7.6 6.9-19.6 12.4-38.6 20.6-29.3 12.8-76.7 20.9-120.7 20.6-15.8-.4-31.1-2.1-44.5-3.6-41-4.7-70.7-8-76.9 29.3-7.8 46.8 36.2 103.5 36.6 104v1.6l-1.4.4s-70.1-32.3-71.8-33.2l-2.2-1.6-1.8-1.7c-5.3-5.1-15.9-16.5-37.5-41.5-41.8-48.3-90.7-54.7-128.4-45.5-9.2 2.2-20.9 8.9-28.5 16.5-19.7 19.4-17.5 58.5-16.3 72.7 1.3 16.1 2.1 17.3 2.5 18.6l-.2 1.6-1.4.2-.8-.6-57.5-28.1-2.2-9.4c-1.5-6.2-3.2-13.1-6.4-21.7-20.6-54.2-66.8-94.9-117.6-103.7-34.4-5.9-97.1-6.6-130.3 56.1-13.9 26.2-13 60.2 2.2 88.9 15.5 29.4 43.2 48.2 76 51.8 32.5 3.5 57-4 70.7-21.7 13.8-17.9 16.4-42.3 6.6-62.2-10.5-21.3-26.4-32.7-48.5-34.5-16.8-1.5-29.3 5.5-33.8 12.6-1.3 2.2-3.7 6.4-3.7 12.2v.2c0 16 14.7 20.4 17.7 20.6.9 0 5.3-.1 11.2-1.6l2.8-.9 1.9-.7 1.4-.3c10.7-1.9 20.9 4.3 23.9 14.7.5 1.9.8 3.8.8 5.7 0 6.9-3.5 13.3-9.3 17.2l.2-.1-.6.4-1 .6c-3.1 1.9-5.9 3-8.9 3.9-8.3 2.7-15.7 4-23.2 4-25.4 0-60.7-21.9-61.2-62.9-.2-23.1 11.4-44.2 31.8-57.8 23.5-15.5 64.2-20.8 101.9 2.3 46.4 28.4 58.6 84.1 46.4 122.1-17.6 55-67.2 84.4-132.6 78.5-46.3-4.1-89.3-28.6-114.9-65.4-11.4-16.3-19.8-34.5-24.3-52.6-10.5-41.5.1-85.5 8-105 25-62.1 73-115.5 142.4-158.8l4.4-2.7c147.6-90.7 252-87 328.5-84.4 90.2 3.1 186.4 34.2 199.6 38.6 0-3 .6-29.9.6-29.9l.4-.9 1-.3c6 .8 135.6 20.1 190.2 51.9 6.8 4 10.1 8.1 14.3 12.4 15.1 15.6 35 80.5 37.1 93.9l-.8 1.4c-.8.3-2.7 1.7-5.2 3.3-12.7 8.9-42.5 29.7-80.7 26.3-34.3-3-79.1-22.7-133.2-58.3 2.4 5.6 13.6 32.2 15.5 36.7l.7.9c7.8 4.1 82.9 42.3 120.2 41.5 30.2-.4 62.3-15 75.1-22.7zm-34.9-74.9c1-30.5-22.9-56.3-53.5-57.4-14.8-.5-28.9 4.7-39.7 14.8-10.9 10.1-17.1 23.8-17.6 38.6-1 30.5 22.9 56.3 53.5 57.4 14.9.5 28.9-4.7 39.8-14.9 10.8-10 17-23.7 17.5-38.5z" fill="#73ba25"/>
</svg>
