<svg xmlns="http://www.w3.org/2000/svg" viewBox="0 0 1024 1024">
  <path d="M742.2 730c6.1-50.7 4.3-58.2 42-49.9l9.6.8c29.1 1.3 67.1-4.7 89.4-15 48.1-22.3 76.6-59.5 29.2-49.8-108.1 22.3-115.5-14.3-115.5-14.3 114.1-169.4 161.9-384.4 120.7-437C805.2 21.3 610.7 89.1 607.5 90.9l-1 .2c-21.4-4.4-45.3-7.1-72.1-7.5-48.9-.8-86 12.8-114.2 34.2 0 0-346.9-142.9-330.8 179.7 3.4 68.6 98.4 519.4 211.6 383.2 41.4-49.8 81.4-91.9 81.4-91.9 19.9 13.2 43.6 19.9 68.6 17.5l1.9-1.6c-.6 6.2-.3 12.2.8 19.4-29.2 32.6-20.6 38.3-78.9 50.3-59 12.2-24.3 33.8-1.7 39.5 27.4 6.9 90.9 16.6 133.8-43.5l-1.7 6.9c11.4 9.2 10.7 65.8 12.3 106.3 1.6 40.5 4.3 78.3 12.6 100.5 8.3 22.3 18 79.6 94.6 63.2 64.1-13.7 113-33.5 117.5-217.3" stroke="#000" stroke-width="37.395"/>
  <path d="M912.4 616.1c-108.1 22.3-115.5-14.3-115.5-14.3 114.1-169.4 161.9-384.4 120.7-437C805.2 21.3 610.7 89.1 607.5 90.9l-1 .2c-21.4-4.4-45.3-7.1-72.1-7.5-48.9-.8-86 12.8-114.2 34.2 0 0-346.9-142.9-330.8 179.7 3.4 68.6 98.4 519.4 211.6 383.2 41.4-49.8 81.4-91.9 81.4-91.9 19.9 13.2 43.6 19.9 68.6 17.5l1.9-1.6c-.6 6.2-.3 12.2.8 19.4-29.2 32.6-20.6 38.3-78.9 50.3-59 12.2-24.3 33.8-1.7 39.5 27.4 6.9 90.9 16.6 133.8-43.5l-1.7 6.9c11.4 9.2 19.5 59.6 18.1 105.2-1.3 45.7-2.2 77.1 6.8 101.6s18 79.6 94.7 63.2c64.1-13.7 97.3-49.3 101.9-108.7 3.3-42.2 10.7-36 11.2-73.7l5.9-17.9c6.9-57.2 1.1-75.6 40.6-67.1l9.6.8c29.1 1.3 67.1-4.7 89.4-15 47.9-22.1 76.4-59.4 29-49.6z" fill="#336791"/>
  <path d="M941.6 615.8c-4.2-12.7-24.5-8.5-31.2-7.2-83.1 17.2-102.9-1.2-107.2-7.6 51.9-77.8 94.7-172.8 117.5-261.3 10.6-40.9 16.4-78.7 16.9-109.5.5-32.7-4.8-56.5-15.9-70.6-26.4-33.7-59.4-58.7-98.2-74.4-31-12.5-65.7-19.1-103-19.4C657 65.1 606 82.7 603.4 84.3c-.4.3-.8.6-1.1.9-21.9-5.7-44.8-8.8-68.6-9.1-44.6-.7-82.8 10.2-114.2 32.6-9.9-3.8-48-17.8-95.8-25.5-32.2-5.2-62-6.4-88.6-3.6-33.7 3.6-62.4 13.6-85.3 29.8-49.2 34.9-71.9 97.8-67.4 187 1.6 31.2 20.1 128.2 46.6 215.3 15.7 51.5 32.3 93.9 49.3 126.1 21 39.7 42.6 63.6 64.3 70.8 4.9 1.6 9.8 2.5 14.7 2.5 16.4 0 32.4-9.3 47.7-27.8 37.7-45.3 72.4-82.1 77.8-87.7 17.6 10.5 37.3 16.1 57.5 16.1 1.3 0 2.7 0 4-.1-.2 3.7 0 7.4.5 10.9-4.6 5.3-8.2 9.9-11.2 13.7-13.5 17.1-17.1 21.7-60.9 30.7-16 3.3-37.3 9.4-37.6 23.8-.3 14.9 23.2 24.7 35.6 27.8 14.2 3.6 27.9 5.3 41 5.3 7.8 0 15.3-.6 22.6-1.9 28-4.8 51.5-18.5 70.1-40.8-1.3 88.2 1.8 183.3 12.3 209.6 4.6 11.5 13.2 33 31.6 48.5 14.9 12.6 33.5 18.9 55.5 18.9 9.2 0 19-1.1 29.4-3.3 64.7-13.9 91.5-41.1 102.3-104 6.5-37.7 18-131.5 22.3-172.7 9.7 5.4 25.6 7.8 43.6 7.8 28.9 0 62.9-6.2 83.5-15.8 16-7.4 30.8-16.9 41.6-26.5 12.5-11 17.5-20.4 15.1-27.8zM722.8 78.3c35.4.6 68.2 7.1 97.4 19 36.1 14.8 67 38.4 91.7 70 18.8 24 17.6 88.9-3.2 169.3-21.9 84.8-62.4 175.7-111.6 251.1-2.5-3.8-5.7-7.8-9.2-12.2-1.4-1.8-3-3.7-4.5-5.7 29.1-44.6 23.7-89.7 18.9-129.5-2-16.6-3.9-32.3-3.4-47.3.5-15.8 2.6-29.2 4.6-42.1 2.5-16.4 4.9-32 4.1-50.9.5-1.4.7-3.2.5-5.5-.7-7.8-6-25.2-16.2-46.4-8.6-17.9-23.8-45-47.4-72.5-24.6-28.6-53-51.5-84.3-68.1-12.2-6.4-24.9-11.9-37.9-16.4 19.3-5.4 57.5-13.6 100.5-12.8zm72.4 225.5c.4 16.3-1.8 30.4-4.1 45.2-2 13.3-4.2 27.1-4.7 43.6-.5 16 1.4 32.1 3.5 49.2 4.6 38.2 9.3 77.7-14.5 117.2-4.9-7.3-9.9-15.8-14.2-26.2-1.8-4.4-6.1-12-11.9-22.5-13.2-23.8-33.3-59.7-46.2-95.8-15-42-16.1-72.7-3.3-91 14.2-20.2 46.3-26.8 95.4-19.7zM295.4 675.4c-16.5 19.9-32.5 26.9-48.9 21.4-34.5-11.5-72-78.5-105.6-188.7-28.3-92.6-44.8-186-46.1-212.3-4.2-84.7 16.7-144 62.2-176.2 48.1-34.1 116-32 164.5-24.2 38.5 6.2 71.1 16.8 86.5 22.3-3.7 3.1-7.2 6.4-10.7 9.9-39.4 39.8-56.9 95.4-64.8 135.1-8.2 41.8-7.7 74.3-7.6 77 0 2.9.2 7.2.6 13.3 1.3 22.4 3.8 64.2-2.8 111.7-5.8 41.3 6.9 81.7 34.8 110.8 4.7 4.9 9.6 9.3 14.9 13.2-8.7 9-41.6 44.2-77 86.7zm71.1-108.6c-25.3-26.3-36.7-62.9-31.5-100.4 6.8-48.7 4.3-91.3 2.9-114.2-.3-4.9-.5-8.9-.6-11.5 2.4-3.2 15-12.9 37.2-22.2 14.3-6 41.9-15.6 66.4-12.1 22.9 3.3 36.7 16.8 42 41.5 22.6 104.5 2.9 148.2-12.9 183.4-3.1 6.9-6.1 13.5-8.6 20.2l-2 5.3c-5.7 15.3-11 29.4-13.5 42.4-29.2 1.6-58-10.1-79.4-32.4zm7.3 139.7c-15.1-3.8-26.3-12-26.2-15.5 0-.1.9-6.3 27.7-11.8 46.3-9.5 52.4-15.2 68.1-35.2 3.8-4.8 8.1-10.3 14.2-17.1 6.8-7.6 12.3-9.9 17.2-9.9 3.9 0 7.4 1.5 10.9 2.9 7.9 3.3 15.2 12.4 18.1 22.6 1.5 5.1 3 14.8-2.8 22.9-36.5 51.2-89.3 50.6-127.2 41.1zm349.6 142.3c-5.1 29.6-13.4 49.1-26.9 63.1-14.1 14.6-34.3 24.1-65.8 30.9-31.2 6.7-56.1 2.3-74.2-12.9-16-13.5-23.9-33.1-28.1-43.6-9.4-23.5-13.9-123.2-10.7-237.1 0-.9-.1-1.7-.4-2.5-.3-2.5-.8-4.9-1.5-7.5-4-13.9-13.9-26-25.3-30.7-7.1-2.9-19.3-8-33.6 2.4 1-14.2 7.2-31 14.2-49.7l2-5.4c2.3-6.3 5.2-12.6 8.2-19.4 8.2-18.2 17.4-38.7 21.8-68.7 5-34.4 2.4-74.4-8-122.5-8.1-37.4-35.3-55.7-76.6-51.4-26.1 2.7-50.1 13.3-62.1 19.4-6.3 3.2-13 7-18.7 10.9 1.7-36.7 11.7-130.4 68.5-187.7 32.3-32.6 75.1-48.7 127.3-47.9 41.8.7 80.8 9.9 115.9 27.5 29.2 14.6 55.9 35 79.3 60.6 26.3 28.7 42.9 57.9 52.1 77.4 8.3 17.5 12.4 30.3 14 37.2-53-7.3-88.4 1.1-105.2 25.2-34.9 49.9 21.6 151.3 48.8 200.1 5.4 9.8 9.7 17.5 11.3 21.2 8.7 21.1 20.1 35.3 28.4 45.7 5.8 7.3 10.5 13.1 11.8 18-1.3.6-4.1 1.4-6.1 2-13.8 3.9-39.3 11.1-36.8 58.8-2 25.1-16.1 143.2-23.6 186.6zm156.5-189.9c-32.8 15.2-96.9 19.7-116.2 8.2-4-2.4-4.2-4.5-4.2-5.2-2.2-38.2 14.4-42.8 27.7-46.5 3.4-1 6.5-1.8 9-3.2 1.6 1.7 3.7 3.5 6.3 5.2 25.2 16.6 74 11.1 110.5 3.6 11.5-2.4 15.6-1.3 16.8-.8-.7 5.2-17.2 23.5-49.9 38.7z" fill="#fff"/>
  <path d="M461.2 343.7c.4-3-1.8-6.1-6.2-8.5-3.9-2.2-9.1-3.8-14.8-4.6-9-1.3-17.3-.2-21.3 2.8-1 .7-1.6 1.5-2 2.3h-.3l-.3 1.8c-.5 3.3 2.3 7.4 3.5 9 4.5 6 11.1 10.1 17.5 11 .9.1 1.9.2 2.9.2 4.6 0 9.2-1.5 13.3-4.3 4.3-2.9 7.3-6.7 7.7-9.7zm278.1-21c-12.2 1.7-20.9 6.8-20.2 12 .7 4.8 9.5 13 20 13 .9 0 1.8-.1 2.7-.2 7-1 12.2-5.5 14.7-8.1 3.6-3.8 5.8-8.1 5.5-10.7-.7-5.2-10.4-7.7-22.7-6z" fill="#fff"/>
</svg>
