<svg xmlns="http://www.w3.org/2000/svg" viewBox="0 0 1024 1024">
  <path d="M880.6 750.5c-16.9-3.9-34.9-6.3-53-6.3-31.1 0-59.3 5.4-80.2 14.1-2.3 1.2-3.9 3.6-3.9 6.3 0 1 .2 2 .6 2.9 2.4 7.1-1.6 14.8-21.8 19.3-29.9 6.5-48.8 37.4-59.6 47.6-12.7 12-48.5 19.4-43.1 12.2 4.2-5.6 20.3-23.1 30.1-42 8.8-16.9 16.6-21.7 27.4-37.9 3.2-4.7 15.4-21.4 19-34.5 4-12.8 2.6-29 4.2-35.6 2.2-9.6 11.2-30.3 11.9-42.1.4-6.6-27.7 9.5-41 9.5s-26.3-8-38.2-8.5c-14.7-.7-24.2 11.3-37.6 9.2-7.6-1.2-14-7.9-27.3-8.4-18.9-.7-42.1 10.5-85.6 9.1-42.8-1.4-82.3-54.1-87.6-62.4-6.3-9.8-14.1-9.8-22.5-2.1-8.4 7.6-18.8 1.6-21.7-3.5-5.6-9.8-20.6-38.4-43.8-44.5-32.1-8.3-48.4 17.8-46.3 38.5 2.1 21.1 15.8 27 22.1 38.2 6.3 11.2 9.5 18.4 21.4 23.4 8.4 3.5 11.6 8.7 9.1 15.6-2.2 6-10.9 7.4-16.7 7.7-12.2.6-20.8-2.7-27.1-6.7-7.3-4.7-13.2-11.1-19.5-22-7.4-12.1-18.9-17.3-32.4-17.3-6.4 0-12.5 1.7-17.8 4.4-21.1 11-46.3 17.5-73.3 17.5H95.8C154.3 825.9 318.6 950.8 512 950.8c154.5 0 290.4-79.7 368.6-200.3" fill="#fff"/>
  <path d="M880.6 750.6c-16.9-3.9-34.9-6.4-53-6.4-31.1 0-59.3 5.4-80.2 14.1-2.3 1.2-3.9 3.5-3.9 6.3 0 1 .2 2 .6 2.8 2.4 7.2-1.6 14.9-21.8 19.4-29.9 6.6-48.8 37.4-59.6 47.6-12.7 12.1-48.5 19.5-43.1 12.3 4.2-5.6 20.3-23.1 30.1-42 8.8-16.9 16.6-21.7 27.4-37.8 3.2-4.7 15.4-21.4 19-34.5 4-12.9 2.6-29 4.2-35.6 2.2-9.6 11.2-30.3 11.9-42 .4-6.6-27.7 9.5-41 9.5s-26.3-8-38.2-8.5c-14.7-.7-24.2 11.3-37.6 9.2-7.6-1.2-14-7.9-27.3-8.4-18.9-.7-42.1 10.5-85.6 9.1-42.8-1.4-82.3-54-87.6-62.4-6.3-9.8-14.1-9.8-22.5-2.1-8.4 7.7-18.8 1.6-21.7-3.5-5.6-9.8-20.6-38.5-43.8-44.5-32.1-8.3-48.4 17.8-46.3 38.5 2.1 21.1 15.8 27 22.1 38.2 6.3 11.2 9.5 18.5 21.4 23.4 8.4 3.5 11.6 8.7 9.1 15.6-2.2 6-10.9 7.4-16.7 7.7-12.2.6-20.8-2.7-27.1-6.8-7.3-4.6-13.2-11-19.5-22-7.4-12-18.9-17.3-32.4-17.3-6.4 0-12.5 1.7-17.8 4.4-21.1 11-46.3 17.5-73.3 17.5H95.8c-14.9-44-22.9-91.2-22.9-140.3C72.9 269.6 269.5 73.2 512 73.2c242.5 0 439.1 196.5 439.1 438.9 0 87.9-25.9 169.7-70.5 238.5"/>
  <path d="M608.7 710.3c2.3 2.2 6.2 9.6 1.4 19-2.7 5-5.6 8.5-10.7 12.6-6.2 5-18.3 10.7-34.8.1-8.9-5.6-9.5-7.5-21.8-5.9-8.8 1.1-12.3-7.8-9.1-15.1 3.2-7.3 16.1-13.3 32.3-3.8 7.3 4.3 18.6 13.3 28.5 5.3 4.1-3.2 6.6-5.4 12.3-12 .3-.3.6-.4 1-.4.3-.1.7 0 .9.2"/>
  <path d="M477.8 282.1c-50.7 3.7-56 9.1-65.5 19.2-13.4 14.3-31-18.5-31-18.5-10.6-2.2-23.4-19.3-16.5-35.2 6.8-15.8 19.4-11.1 23.4-6.2 4.8 6 15 15.8 28.4 15.4 13.3-.4 28.7-3.2 50.1-3.2 21.7 0 36.3 8.1 37.1 15.1.7 6.1-1.8 11.7-26 13.4m53.3-83.7h-.2c-.8 0-1.4-.6-1.4-1.3 0-.5.3-1 .8-1.2 9.8-5.2 24.5-9.3 41.3-11 5-.5 10-.8 14.7-.8h2.5c28.2.7 50.7 11.8 50.3 25-.4 13.1-23.4 23.3-51.6 22.7-9.1-.2-17.6-1.5-25-3.7-.9-.2-1.5-1-1.5-1.8 0-.9.6-1.6 1.5-1.8 17.5-4 29.4-10.7 28.5-17-1.1-8.3-24.1-12.8-51.3-10.1-2.9.1-5.8.5-8.6 1m228.7 196.9c-4.3 14.6-10.5 33.2-38 47.3-4 2.1-5.5-1.3-3.7-4.5 10.4-17.7 12.2-22.1 15.3-29 4.2-10.2 6.5-24.7-2-54.8-16.5-59.4-51-138.8-76-164.5-24.2-24.9-67.9-31.9-107.6-21.7-14.6 3.7-43.1 18.5-96 6.6-91.5-20.6-105.1 25.2-110.3 45.1-5.3 20-17.9 76.7-17.9 76.7-4.2 23.1-9.7 63.3 132.4 90.4 66.2 12.6 69.5 29.7 72.5 42 5.3 22 13.6 34.6 23.1 40.9 9.5 6.3 0 11.5-10.5 12.6-28.2 2.9-132.4-26.9-194.1-61.9-50.4-30.8-51.3-58.5-39.7-82.1-76.2-8.2-133.4 7.1-143.7 43.2-17.7 61.8 136.2 167.5 311.4 220.5 183.9 55.6 373 16.8 394-98.8 9.6-52.4-34.6-91.2-109.2-108" fill="#e93442"/>
</svg>
