<svg xmlns="http://www.w3.org/2000/svg" viewBox="0 0 1024 1024">
  <path class="st0" d="M921.8 718.6c-47.5 24.7-293.3 125.8-345.6 153.1-52.3 27.3-81.4 27-122.8 7.3S150.5 753.5 103.3 731c-23.6-11.3-35.9-20.8-35.9-29.7v-89.9S408 537.3 463 517.5c55-19.7 74.1-20.4 120.8-3.3 46.8 17.1 326.6 67.6 372.8 84.6v88.6c0 8.9-10.7 18.6-34.8 31.2z" fill="#a41e11"/>
  <path class="st1" d="M921.8 628.7c-47.5 24.7-293.3 125.8-345.6 153.1-52.3 27.3-81.4 27-122.8 7.3-41.3-19.8-302.9-125.4-350.1-148-47.1-22.5-48.1-38-1.8-56.2C147.8 566.8 408 464.7 463 445c55-19.7 74.1-20.4 120.8-3.3C630.6 458.8 875 556.1 921.2 573c46.2 17 48 31 .6 55.7z" fill="#d82c20"/>
  <path class="st0" d="M921.8 572c-47.5 24.7-293.3 125.8-345.6 153.1-52.3 27.3-81.4 27-122.8 7.3-41.4-19.8-302.9-125.4-350.1-148-23.6-11.3-35.9-20.7-35.9-29.7v-89.9S408 390.7 463 370.9c55-19.7 74.1-20.4 120.8-3.3 46.8 17.1 326.6 67.6 372.8 84.6v88.6c0 8.9-10.7 18.7-34.8 31.2z" fill="#a41e11"/>
  <path class="st1" d="M921.8 482.1c-47.5 24.7-293.3 125.8-345.6 153.1-52.3 27.3-81.4 27-122.8 7.3-41.4-19.8-302.9-125.5-350.1-148s-48.1-38-1.8-56.2C147.8 420.2 408 318.2 463 298.4c55-19.7 74.1-20.4 120.8-3.3 46.8 17.1 291.2 114.4 337.4 131.3 46.2 17 48 31 .6 55.7z" fill="#d82c20"/>
  <path class="st0" d="M921.8 420c-47.5 24.7-293.3 125.8-345.6 153.1-52.3 27.3-81.4 27-122.8 7.3-41.3-19.8-302.9-125.4-350.1-148-23.6-11.3-35.9-20.8-35.9-29.7v-89.9S408 238.7 463 218.9c55-19.7 74.1-20.4 120.8-3.3 46.8 17.1 326.6 67.6 372.8 84.6v88.6c0 8.9-10.7 18.6-34.8 31.2z" fill="#a41e11"/>
  <path class="st1" d="M921.8 330.1c-47.5 24.7-293.3 125.8-345.6 153.1-52.3 27.3-81.4 27-122.8 7.3-41.3-19.8-302.9-125.4-350.1-148-47.1-22.5-48.1-38-1.8-56.2C147.8 268.2 408 166.2 463 146.4c55-19.7 74.1-20.4 120.8-3.3 46.8 17.1 291.2 114.4 337.4 131.3 46.2 17 48 31 .6 55.7z" fill="#d82c20"/>
  <path class="st2" d="M628.5 243.6l-77 8-17.3 41.5-27.8-46.4-89-8 66.4-23.9-19.9-36.7 62.1 24.3 58.6-19.2-15.8 38zm-98.9 201.3l-143.8-59.6 206.1-31.7z" fill="#fff"/>
  <ellipse class="st2" cx="330.2" cy="309.3" rx="110.1" ry="42.7" fill="#fff"/>
  <path fill="#7a0c00" d="M719.6 254.9l121.9 48.2-121.8 48.1z"/>
  <path fill="#ad2115" d="M584.7 308.3l134.9-53.4.1 96.3-13.2 5.2z"/>
</svg>
