<svg xmlns="http://www.w3.org/2000/svg" viewBox="0 0 1024 1024">
  <linearGradient id="a" gradientUnits="userSpaceOnUse" x1="61.552" y1="742.167" x2="635.149" y2="742.167">
    <stop offset="0" stop-color="#939fab"/>
    <stop offset="1" stop-color="#dcdee1"/>
  </linearGradient>
  <path d="M608.9 504.9c-.6-3.1-.8-5.9-.5-6.2.5-.5 2.4-1.1 26.7-8.1l-4.8-11.3-197.5 64.4-171.7 75.8-48.1 12.8c-12.2 11.6-25.1 23.4-38.9 35.4-15.2 13.2-29.4 25.1-40.2 33.8-12.1 9.6-30 27.4-39.2 38.8-13.6 17-24.3 35.1-28.9 49-8.3 25.1-4.2 50.4 11.7 73.8 20.3 29.9 60.8 60.3 107.9 81 24 10.6 64.5 24.2 94.9 31.8 50.6 12.8 148.5 26.7 202.4 28.7 10.9.4 25.5.4 26.1-.1 1.2-.8 9.6-16.7 19.3-36.5 33.1-67.7 57.1-131.1 70-185.2 7.8-32.8 13.9-76.5 17.8-128.4 1.1-14.5 1.5-63 .7-79.4-1.5-26.8-3.9-48.6-7.7-70.1zm-95.3 23.9c20.8-7.2 70-22.9 71.6-22.9 1.8 0 6.6 45.8 7.8 74.8.3 6.2.2 10.1-.2 10.1-1.2 0-25.3-14.2-42.4-24.9-14.9-9.4-43.3-28.2-47.8-31.7-1.4-1.2-1.2-1.2 11-5.4zm-46.7 130.3c10.1-37.2 15.7-74.8 15.9-104.9.1-14.9.1-15 1.5-15.3h.2c1.3 0 4.8 1.9 13 7.1 30.8 19.3 72.5 42.5 90.4 50.3 5.5 2.4 6.2 1.5-6.6 10.2-27.2 18.5-61 36.7-102.6 55.1-7.2 3.2-13.4 5.8-13.6 5.8-.2-.1.6-3.7 1.8-8.3zm-84.6-80.8c2.3-1.7 81-32.1 81.5-31.5.9.9.2 34.3-.8 43.4-2.6 21.8-6.9 42-13.7 65-1.6 5.5-3.2 10.2-3.4 10.5-.6.7-21-19.2-27.8-27.1-11.6-13.5-20.8-26.8-27.5-40-3.4-6.8-8.8-20-8.3-20.3zm-22 11.4c.6-2.2 1.3-2.9 3.3-3.8 1.1-.5 2.1-.7 2.7-.7.2 0 .3.1.4.2.3.3 1.3 2.8 2.3 5.4 4.8 12.9 15.5 32.1 24.7 44.4 10.1 13.4 23.4 27.7 34.4 37.2 3.6 3 6.9 5.9 7.3 6.3.9.8 1.3.7-23.1 9.9-28.2 10.7-59 21.4-94.2 32.8-13.4 4.3-24.8 8-25.3 8.2-1.3.5-.9-.3 3-6.5 17.5-27.4 44.1-80.9 58.9-118.8 2.7-6.5 5.2-13.1 5.6-14.6zm69.9 118.9c-13 31.5-30.1 65.8-51.8 104.3-5.5 9.8-10.2 17.8-10.4 17.8-.2 0-4.7-2.7-10-5.9-31.7-19.4-59.7-43.2-78.1-66.4l-2.6-3.3 13.7-3.7c48.7-13.3 90-27.6 131-45.3 5.8-2.5 10.6-4.5 10.7-4.4.2 0-1 3.2-2.5 6.9zm-181.5-61.5c1.9-9.3 1.9-9.1 6.2-11.4 19-9.7 80.8-38.7 81.4-38.1.4.3-7.2 16.3-14.6 30.9-14.4 28.2-30.4 55.9-51.5 89.7-3.6 5.8-7 11.2-7.5 11.8-.8 1.1-1.1.7-3.4-3.9-5.1-10.1-9.3-22.8-11.5-34.6-2.1-11.7-1.7-31.9.9-44.4zM90.3 786.9c3.4-21.9 20.1-50.7 43.5-74.8 15.5-16 27.9-25.5 49.1-37.6 15.2-8.7 38.7-21.6 40.5-22.3.1 0 .2-.1.3-.1.6 0 .5 1.1-.5 6.6-.7 3.8-1.4 11-1.7 16-1.2 21.8 2.3 37.9 13.2 60 3 6.1 5.4 11.2 5.2 11.3-1.1.9-99.8 29.8-130.9 38.3-9.2 2.5-17.2 4.7-17.9 4.9-1.1.5-1.1.2-.8-2.3zM150.7 893l-6.7-5.6c-7.8-6.6-21.6-20.6-27.8-28.3-12.8-16-21.5-32.8-24.9-48.2-1.6-7.1-1.6-10.8-.1-11.2 2.2-.7 42-10 79.4-18.7 20.8-4.8 44.8-10.5 53.4-12.5 8.6-2.1 15.7-3.7 15.8-3.6.4.3-18.6 27.6-45.2 64.7-9.2 12.9-20.1 28.1-24.1 33.8-4 5.7-10.1 14.7-13.5 20l-6.3 9.6zm10.3 7.8l-2.7-2 4.3-6.2c14-20.3 31.6-42.6 70-88.8l26.4-31.7 4.8 5.4c21.5 24 43.4 41.8 70.1 57.3 4.7 2.7 8.3 5.1 8 5.3-1.1.7-92.3 33.1-134.5 47.8-23.8 8.3-43.3 15-43.4 15-.2-.1-1.5-1-3-2.1zm127.5 59l-2.2-.6c-5.4-1.4-43.1-14.8-53.1-18.7-12.4-4.9-25.2-10.8-34.7-16-11.9-6.4-26.9-15.9-25.7-16.3.3-.1 20.8-5.7 45.4-12.4 65.4-17.8 101.6-28.1 125.4-35.5 4.4-1.4 8.1-2.4 8.2-2.3.2.2-10.4 17.1-29 46.5-7.9 12.4-16.8 26.5-19.8 31.3-3.1 4.8-7.5 12.2-9.9 16.4l-4.6 7.6zm12 2.8c0-.3 3.6-4.9 7.9-10.1 21.5-25.7 42.8-54.4 60.6-81.5 4.9-7.4 9-13.6 9.1-13.7.1-.1 6.8 2.2 14.8 5.2 19.4 7.3 34.7 12 55.4 17.2 25.4 6.3 62 12.7 83.7 14.5 3.3.3 5 .7 4.5 1-1 .6-23 8-39.1 13.1-25.6 8.1-104 31.2-167.9 49.6-11.9 3.4-22 6.3-22.5 6.4-1.5.3-6.5-1.1-6.5-1.7zm204.8 28.9c-2 4.8-2.7 5.9-3.7 5.9-2.5-.1-37.6-5-58.9-8.2-37.2-5.6-99.5-16.5-115.3-20.1l-3.7-.8 22.3-5c47.8-10.8 70.8-16.5 94.1-23.7 29.4-9 58.5-20.2 87.8-33.9 4.6-2.2 8.6-3.8 9.6-4h.2c.7 1.4-23.6 68.5-32.4 89.8zm61.2-182c-5.3 18.6-9.7 33.2-17.9 59.1-3.6 11.4-6.7 20.7-6.9 20.7-.2 0-1.1-.2-1.9-.4-44.4-8-84.1-19.2-121.3-34.2-10.4-4.2-25.4-10.8-26.2-11.6-.3-.3 8.7-4.5 20-9.4 68-29.7 138.4-63.4 162.5-77.9 2.9-1.7 5-2.8 5.5-2.7.1 0 .1.1.1.1 0 3.4-7.6 34.1-13.9 56.3zm11.2-63.4c-19.8 11-85.1 38.2-151.8 63.2-9.7 3.7-19.2 7.2-21.1 8-1.9.7-3.4 1.2-3.4 1.1s2.7-5.4 6.1-11.7c18.7-35 37.4-77.5 47-107 1-3 1.8-5.5 1.9-5.7.1-.1 3.8 1.8 8.1 4.4 32 18.3 76.5 35.6 114.5 44.2l3.4.8-4.7 2.7zm16.2-131.8c0 33.3-3.6 78.9-8.7 112.2-.9 5.8-1.7 10.7-1.7 10.7-.1.1-4.3-1.2-9.3-2.7-22.4-7-46.7-17.4-68.6-29.4-14.5-8-35.5-20.8-34.9-21.4.2-.2 6.3-3.4 13.7-7.3 29.3-15.2 57.3-31.6 81.7-47.9 9.1-6.1 22.8-16 25.8-18.6l2.2-1.9v6.3z" fill="url(#a)"/>
  <linearGradient id="b" gradientUnits="userSpaceOnUse" x1="211.351" y1="112.298" x2="523.177" y2="112.298">
    <stop offset="0" stop-color="#939fab"/>
    <stop offset="1" stop-color="#dcdee1"/>
  </linearGradient>
  <path d="M279 163.1l113.3 20.2 129.5 22.3 1.3-11.1c-.4-.1-.8-.1-1.2-.2l-17.1-2.7-3.5-6.1c-17.6-31.1-37.1-69.5-48.4-95.5-8.7-20.1-17.1-43.4-21.8-60.2-2.8-10-3.1-10.6-4.6-10.8-3.3-.4-56.3 18.7-90.4 32.6-46.1 18.7-82 36.7-104.1 52.2-8.2 5.8-18.6 16.2-20.1 20.1-.6 1.5-.8 3.2-.8 5l20.1 18.9 47.8 15.3zm174.3-29.2c.6 0 1.3 1.3 3.2 5.4 5.1 11.2 20.9 41.4 24.8 47.2 1.3 1.9 3.3 2.1-17.8-1.3-50.6-8.2-66.9-10.9-66.9-11.2 0-.2 1.5-1.2 3.4-2.2 15.7-8.7 31.5-19.7 45.5-31.5 3.4-2.8 6.6-5.5 7.2-6 .2-.3.4-.4.6-.4zM343.5 60.4c20.6-9.6 76.7-32.9 80.8-33.7h.2c.1.1.7 4.3 1.3 9.2 2.5 20.9 7.2 41.1 14.5 62.9 5.5 16.4 5.6 15.4-1 13.6-15.2-4.3-83.5-16-132.9-22.8-8-1.1-14.6-2.1-14.7-2.2-.5-.6 35.7-19.6 51.8-27zm-57.3 35.1c31.7 10.8 111.2 26 155.1 29.6 5 .4 9.1.9 9.2 1 .1.1-4.1 2.4-9.3 5-21.2 10.6-44.5 23.5-60.6 33.6-4.7 3-9.1 5.4-9.7 5.3-.6 0-3.7-.5-7-1.1l-6-1-15-14.6c-26.3-25.5-46.9-45.2-54.8-52.6l-7.7-7.2 5.8 2zm-47.9 44.1c.1-10.1 12.8-24.9 34.3-40.1l1.9-1.3 21 26.2c11.6 14.4 23.1 28.7 25.7 31.8 2.6 3.1 4.6 5.7 4.4 5.8-.6.4-30.4-5.4-46.2-9-16.2-3.7-22.9-5.5-33-8.7l-8.2-2.6.1-2.1z" fill="url(#b)"/>
  <radialGradient id="c" cx="616.894" cy="328.318" r="540.404" gradientUnits="userSpaceOnUse">
    <stop offset="0" stop-color="#ee352c"/>
    <stop offset="1" stop-color="#a91d22"/>
  </radialGradient>
  <path d="M960.4 414.1c-12-18.6-20.1-30-29.9-42.2-28.7-35.5-63.4-64.4-105.9-88.2-58.4-32.7-134.2-58.1-230-77.2-18.1-3.6-57.8-10.4-90.1-15.4-68.4-10.7-112.5-17.9-161.2-26.3-17.5-3-43.5-7.4-60.9-11.2-9-2-26.2-6-39.5-10.6-11-4.3-26.5-8.5-29.8-21.1 0 0-3.3 5.2-.2 12.9 1.9 4.8 7.7 10.5 14 16.6 0 0 66.3 64.7 74.5 74.1 36.8 42.4 52.7 84.2 54.2 141.9.9 37-6.2 69.5-23.5 107.3-31.1 67.8-96.5 142.5-197.6 225.6l14.8-4.9c9.5-7.1 22.5-14.8 53-31.5 70.4-38.5 149.4-73.9 246.4-110.4C588.3 501 818.1 439.4 948.8 419.4l13.6-2.1-2-3.2zM634.5 238.8c1.4 0 28.6 7.4 42.6 11.6 35 10.5 75.4 25.2 101.7 37.1l10.9 4.9-7.7 1.8C717.9 309 662.9 326 610 347.5c-4.4 1.8-8.2 3.2-8.5 3.2-.3 0 1.1-3.4 3.1-7.6 15.9-33.8 26.2-69.3 28.9-99.4.2-2.7.7-4.9 1-4.9zm-14.6 17.9c-5.4 22.2-19.8 55.2-37.5 86.3-3.1 5.5-5.9 10-6.2 10.1-.3.1-4.4-2-9-4.7-17.4-10.1-37-19.7-58.6-28.6-6-2.5-11.1-4.7-11.4-4.9-1-.9 47-32.7 72.4-47.9 20.3-12.2 53.1-30.4 53.6-29.9.5.3-1.5 12.4-3.3 19.6zm-254.9 52c-.6-4.2-1-7.7-.8-7.8.4-.4 21.1 4.4 32.4 7.6 17 4.8 53.1 16.8 53.1 17.8 0 .2-4 3.6-8.8 7.7-19.5 16.3-38.4 33.4-60.9 55.2-6.7 6.5-12.4 11.7-12.7 11.7-.3 0-.4-.9-.2-2.1 3.4-25.1 2.6-57.3-2.1-90.1zm50.7 68.4c14.1-11.9 43.7-35.6 44-35.2.4.4-4.6 18.9-7.8 28.7-6.1 18.9-16.4 42.7-26.4 60.6-2.3 4.2-5.9 10.4-7.9 13.7l-3.7 6-8.4-8.1c-9.7-9.4-17.7-15.3-27.8-20.5-4-2-7.2-3.9-7.2-4.2.1-1.2 25.5-24.4 45.2-41zm31.6 47.5c13.4-24.5 24.1-53.7 30.3-82.2.6-2.5 1.2-4.1 1.7-4 2.1.5 21.5 9.5 36.1 16.8 13.4 6.7 33.6 17.5 34.6 18.4.1.1-7 3.8-15.9 8.3-28 14-52.1 27.3-77.2 42.6-7.2 4.4-13.1 8-13.3 8-.6-.1-.3-.6 3.7-7.9zm17.3-219c.5-.4 61.8 10.2 89.7 15.5 20.8 4 50.8 10.3 52.6 11 .9.4-2.2 2.1-12.2 6.6-39.5 17.8-68.7 33.7-97.8 53.1-7.7 5.1-14 9.3-14.2 9.3-.1 0-.2-4.3-.2-9.5 0-28.3-5.7-57-16.1-81.1-1-2.6-1.9-4.8-1.8-4.9zm-10.3-1.5c.9.3 2.5 5.3 5.3 16.6 5.5 21.6 8 45.9 7.2 68.3-.2 6.2-.6 12-.9 12.9l-.5 1.6-7.7-2.5c-15.9-5.1-41.9-12.7-64.2-18.9-12.7-3.5-23-6.6-23-6.9 0-.9 18.5-19.4 26.4-26.4 15.2-13.4 56-45.1 57.4-44.7zm-114.8 53.8c-.1.1-1.8-2.5-3.7-5.7-17.4-30.7-45.1-61.9-77-87-4-3.1-7.2-5.8-7.2-5.9.1-.1 2.6.7 5.6 1.7 5.6 1.9 13 4.1 21.6 6.5 6 1.7 12.6 3.5 19.7 5.2 9 2.3 16.4 4.3 16.5 4.4 1 1.1 16.1 49.2 21.2 67.7 1.9 7.1 3.4 12.9 3.3 13.1zm15 1.6c-5.4-20.8-16.6-51.5-26.7-73.1-1.6-3.5-2.9-6.5-2.9-6.8 0 0 0-.1.2-.1.8-.1 4.1.5 8 1.4 25.4 5.6 70.9 14.4 100.1 19.3 4.9.8 8.9 1.7 8.9 2 0 .3-1.8 1.4-4 2.5-4.9 2.5-24.7 14.3-31.4 18.8-16.6 11.1-31.5 23-42.3 33.7-4.4 4.3-8 7.9-8.1 7.9-.2 0-1-2.5-1.8-5.6zm-31.4 258.4c9.9-15.1 14.8-23.6 20-34.5 4.6-9.7 9.2-21.2 12.5-31.2 1.4-4.2 2.8-7.6 3.2-7.6.4 0 3.9 1.8 7.7 3.9 9.5 5.3 18.1 11.1 25.6 17.4.3.2-3.6 3.4-8.7 7.1-14.1 10.2-35.7 26.5-48.2 36.4-13.2 10.5-13.6 10.8-12.1 8.5zM256 602c-1 .6.3-.9 15.8-17.8 9.8-10.7 17.3-19.5 25.8-30.6 5.6-7.3 6.7-8.3 14.9-14.2 22.1-15.9 72.6-50.2 73.2-49.6.6.6-16.5 19.9-28 31.6-28.8 29.4-57.3 52.4-92.7 74.8-4.4 2.9-8.4 5.5-9 5.8zm155.2-56.4c-36.6 14.2-70.3 28.2-93.1 38.6-6.4 2.9-17.6 8.3-25 12-7.3 3.7-13.3 6.6-13.3 6.4 0-.2 4.6-3.6 10.2-7.7 44.7-32.4 83.2-68 112.2-103.5 3.1-3.8 5.9-7.1 6.3-7.3.1-.1.2-.1.3-.1.7-.1 1.6 1.2 5.7 7.2 8.5 12.7 15 29.7 16.7 43.5l.3 3-20.3 7.9zm30.8-12.3c-.4.1-.6-2-.6-5.5 0-18.1-4.6-37.4-12.7-53.7-3.4-6.9-4-8.6-3.3-9.2 2.8-2.5 46.3-27.3 73.7-42 18.8-10.1 47.7-24.8 48.1-24.4.4.4-20.2 29.2-32.4 45.4-14.6 19.5-40.7 52-58.6 73.2-7.5 8.8-13.9 16.1-14.2 16.2zm213.2-69.4c-68.4 19-121.2 35.9-182.8 58.5-6.8 2.5-12.7 4.6-13.2 4.6-.9 0-1.7.8 13.7-13.4 39.4-36.3 74.3-76.3 100.3-115.1l5.2-7.9 7.3 4.7c16.7 10.8 36.5 25.4 51.5 38 8.4 7 24.9 21.7 28.2 25.3l1.8 1.9-12 3.4zm27.1-7.7c-.1 0-2.1-2.7-4.2-6-16.8-25-36.7-47-60.4-66.8-4.4-3.7-9.4-7.7-11.1-9-1.7-1.2-3-2.4-3-2.6 0-.4 25.3-11.3 44.7-19.1C682 339 728 322.6 762.4 312c18.2-5.6 37.5-11.1 37.7-10.8.3.3-9.6 15.8-15.8 24.6-9 12.9-22.1 29.8-51.8 67.2-15.6 19.6-33.2 41.9-39.2 49.4-5.9 7.7-10.9 13.8-11 13.8zM932 412.7c-62.9 4.7-143.2 18.1-220.6 36.7-5.3 1.3-9.8 2.3-10.1 2.3-.3 0 5.5-5.8 12.8-12.8 45.4-43.7 66.2-71.3 90.6-120.6 3.6-7.3 6.7-13.7 6.8-14.1h.1c.5-.1 4.2 1.6 8.5 4.1 36.3 20.8 71.8 47.5 99.8 74.9 8 7.8 27.4 28 27.1 28.2-.2.2-6.9.7-15 1.3z" fill="url(#c)"/>
</svg>
