<svg xmlns="http://www.w3.org/2000/svg" viewBox="0 0 1024 1024">
  <linearGradient id="a" gradientUnits="userSpaceOnUse" x1="888.709" y1="621.29" x2="890.709" y2="433.29">
    <stop offset="0" stop-color="#d2f2ca"/>
    <stop offset="1" stop-color="#4acc2d"/>
  </linearGradient>
  <path d="M892.5 350.9c22.3.8 39.9 19.6 39.1 42-.3 10.8-4.9 20.8-12.8 28.2-7.9 7.4-18.2 11.2-29.1 10.9-22.3-.8-39.8-19.7-39.1-42 .3-10.8 4.9-20.9 12.9-28.2 7.8-7.4 18.1-11.2 29-10.9zm24.6 32.5c0-6.7-8-12-18-12s-18 5.4-18 12 8 11.9 18 11.9 18-5.3 18-11.9z" fill="url(#a)" stroke="#039b02" stroke-width="4" stroke-linejoin="round"/>
  <linearGradient id="b" gradientUnits="userSpaceOnUse" x1="510.933" y1="617.271" x2="512.933" y2="429.271">
    <stop offset="0" stop-color="#d2f2ca"/>
    <stop offset="1" stop-color="#4acc2d"/>
  </linearGradient>
  <path d="M982.5 471.3l4.2-.8c1.1.9 1 2.8.6 4.4-.8 3.8-2.6 10.7-3.9 14l-1 2.7c-1.4 4-3 7.8-5.8 10.1-7.8 7.1-20.2 12.8-39.7 21.2-30.2 13.2-79 21.5-124.3 21.2-16.3-.4-32-2.2-45.8-3.7-42.2-4.8-72.8-8.2-79.2 30.2-8 48.2 37.3 106.6 37.7 107.1v1.6l-1.4.4s-72.2-33.3-73.9-34.2l-2.3-1.6-1.9-1.8c-5.5-5.3-16.4-17-38.6-42.7-43-49.7-93.4-56.3-132.2-46.8-9.5 2.3-21.5 9.2-29.3 17-20.3 20-18 60.2-16.8 74.8 1.3 16.6 2.2 17.8 2.6 19.1l-.2 1.6-1.4.2-.8-.6-59.2-28.9-2.3-9.7c-1.5-6.4-3.3-13.5-6.6-22.3-21.2-55.8-68.7-97.7-121-106.8-35.4-6.1-100-6.8-134.1 57.8-14.3 27-13.4 62 2.3 91.5 16 30.3 44.5 49.6 78.2 53.3 33.5 3.6 58.7-4.1 72.8-22.3 14.2-18.4 16.9-43.5 6.8-64-10.8-21.9-27.2-33.7-49.9-35.5-17.3-1.5-30.2 5.7-34.8 13-1.3 2.3-3.8 6.6-3.8 12.6v.2c0 16.5 15.1 21 18.2 21.2.9 0 5.5-.1 11.5-1.6l2.9-.9 2-.7 1.4-.3c11-2 21.5 4.4 24.6 15.1.5 2 .8 3.9.8 5.9 0 7.1-3.6 13.7-9.6 17.7l.2-.1-.6.4-1 .6c-3.2 2-6.1 3.1-9.2 4-8.5 2.8-16.2 4.1-23.9 4.1-26.1 0-62.5-22.5-63-64.8-.2-23.8 11.7-45.5 32.7-59.5 24.2-16 66.1-21.4 104.9 2.4 47.8 29.2 60.3 86.6 47.8 125.7-18.1 56.6-69.2 86.9-136.5 80.8-47.7-4.4-92-29.6-118.3-67.5-11.7-16.8-20.4-35.5-25-54.2-10.8-42.7.1-88 8.2-108.1C71.3 460 120.7 405 192.2 360.4l4.5-2.8c151.9-93.4 259.4-89.6 338.2-86.9 92.9 3.2 191.9 35.2 205.5 39.7 0-3.1.6-30.8.6-30.8l.4-.9 1-.3c6.2.8 139.6 20.7 195.8 53.4 7 4.1 10.4 8.3 14.7 12.8 15.5 16.1 36 82.9 38.2 96.7l-.8 1.4c-.8.3-2.8 1.8-5.4 3.4-13.1 9.2-43.8 30.6-83.1 27.1-35.3-3.1-81.4-23.4-137.1-60 2.5 5.8 14 33.1 16 37.8l.7.9c8 4.2 85.3 43.5 123.7 42.7 31.2-.4 64.2-15.4 77.4-23.3zm-35.9-77.1c1-31.4-23.6-58-55.1-59.1-15.2-.5-29.8 4.8-40.9 15.2-11.2 10.4-17.6 24.5-18.1 39.7-1 31.4 23.6 58 55.1 59.1 15.3.5 29.8-4.8 41-15.3 11.1-10.3 17.5-24.4 18-39.6z" fill="url(#b)" stroke="#039b02" stroke-width="4" stroke-linejoin="round"/>
  <linearGradient id="c" gradientUnits="userSpaceOnUse" x1="873.753" y1="362.356" x2="873.753" y2="390.857">
    <stop offset="0" stop-color="#8bde78"/>
    <stop offset="1" stop-color="#caf0c2"/>
  </linearGradient>
  <path d="M883.6 362.6c-6.4.8-10.7 2.3-16.3 8.2-9.4 10-11.2 21.5-5.2 19.9 9.6-2.5 16.6-2.6 14.9-7.6-1.7-5-2-11.9 11.8-20.3 0 .1-2.1-.6-5.2-.2z" fill="url(#c)"/>
  <linearGradient id="d" gradientUnits="userSpaceOnUse" x1="529.109" y1="276.654" x2="529.109" y2="441.257">
    <stop offset="0" stop-color="#8bde78"/>
    <stop offset="1" stop-color="#caf0c2"/>
  </linearGradient>
  <path d="M749 287.6c1.4 33.5-5 30.6-5 30.6-89.4-38.7-228.4-41-242.1-41-74.1 0-109.6 3.2-204.7 36.2s-147.8 86.2-147.8 86.2c111.6 26.2 170.4 41.9 352.5 41.9S765.4 419 765.4 419l-5.4-12.5 14.5 11.2c29.4-11.1 45.4-17.7 50.8-21.1 5.4-3.4 4.4-8.9 4.4-8.9 3.8-57 55.6-56 66.9-55.4 11.3.6 12.3-5.2 12.3-5.2C791.1 289.8 749 287.6 749 287.6z" fill="url(#d)"/>
</svg>
