<svg xmlns="http://www.w3.org/2000/svg" viewBox="0 0 1024 1024">
  <circle cx="166.5" cy="512.1" r="87" fill="#ff6309"/>
  <circle cx="790.3" cy="872.2" r="87" fill="#ffb515"/>
  <path d="M582.4 296.8c108.3 0 198.2 80.4 213.1 184.7h149.1c-6.8-82-40.7-158.3-97.6-218.6-36.4 18.5-81.1 18.9-119.1-3.1s-60.1-60.9-62.2-101.7c-27-6.3-54.9-9.6-83.3-9.6-54.4 0-107 11.9-154.8 34.4l74.6 129.3c24.8-9.9 51.9-15.4 80.2-15.4z" fill="#ff6309"/>
  <path d="M795.5 542.5c-14.8 104.3-104.8 184.8-213.1 184.8-28.3 0-55.4-5.5-80.2-15.5l-74.6 129.3c47.8 22.5 100.4 34.4 154.8 34.4 28.4 0 56.4-3.3 83.4-9.6C667.9 825 690 786 728 764.1c38-22 82.8-21.6 119.1-3 56.8-60.2 90.7-136.6 97.4-218.5h-149v-.1z" fill="#c90016"/>
  <path d="M367.1 512.1c0-68.6 32.2-129.8 82.4-169.2l-74.6-129.2c-17.5 12.2-34.1 26.1-49.5 41.5-43.2 43.2-74.1 95.3-91.2 152.2 34.3 22.2 57.1 60.8 57.1 104.8 0 43.9-22.7 82.6-57.1 104.8 17 56.9 48 109 91.2 152.2 15.4 15.4 31.9 29.2 49.4 41.5l74.6-129.2c-50.1-39.7-82.3-100.9-82.3-169.4z" fill="#ffb515"/>
  <circle cx="790.3" cy="151.8" r="87" fill="#c90016"/>
</svg>
