<svg xmlns="http://www.w3.org/2000/svg" viewBox="0 0 1024 1024">
  <path d="M948.7 512.1c.7 239.1-195.7 436.1-435.3 436.6-241.2.5-437-194.3-438.2-435.8-1.2-240.1 195-437 436.3-437.7C752 74.6 948 270.5 948.7 512.1zm-62.6-1.1c-1.9-207.1-170.3-374.5-375.7-373.1-206.2 1.4-374.3 171-372.6 376.2 1.7 206 170.7 373.8 375.6 372 207.8-1.9 372-169.1 372.7-375.1z" fill="#546ad9"/>
  <path d="M348.2 512.1c0-91.4 72.5-164 164-164 90.8 0 163.6 72.6 163.7 163.2.1 91.9-72.6 164.7-164.5 164.5-90.7-.1-163.2-72.9-163.2-163.7zM512 627c62.2.6 114.4-51.1 115-113.9.6-63.2-51.2-116-113.8-116.1-64.2-.2-114.8 50-116.2 115-1.4 61.9 51 114.3 115 115zM230.3 334.6c27.2-42.8 61.4-77 104.1-104.4 19.2 38.4 38.1 76.1 54.7 109.4-16.7 16.8-32.2 32.3-49.5 49.6-32.8-16.4-70.7-35.4-109.3-54.6zm404.4 349.6c17.4-17.3 50.3-50.6 50.3-50.6s73 37.9 108.6 55.8c-26.8 42.6-61 76.6-104 104.4-19.2-38.3-38.2-76.2-54.9-109.6z" fill="#546ad9"/>
  <path d="M449 511.5c.5-36.1 28.2-62.8 64.8-62.5 34.6.3 61.7 29.2 61.1 65.1-.6 34.3-29.3 61.5-64.3 60.9-34.9-.6-62.1-28.6-61.6-63.5z" fill="#546ad9"/>
</svg>
