<svg version="1.1" id="图层_1" xmlns="http://www.w3.org/2000/svg" x="0" y="0" viewBox="0 0 1024 1024" xml:space="preserve">
  <style>
    .st6{fill:#152469}.st10{fill:#094b8f}.st33{fill:#de980d}.st40{fill:#bc1b00}.st42{fill:#e82e00}.st43{fill:#f83603}.st44{fill:#e32e00}.st58{fill:#5f821c}.st66{fill:#26551b}
  </style>
  <g id="g3284">
    <g id="g3286">
      <radialGradient id="path3293_1_" cx="249.274" cy="184.804" r="532.03" gradientTransform="matrix(.7921 0 0 -.7973 322.418 715.204)" gradientUnits="userSpaceOnUse">
        <stop offset=".25" stop-color="#fff"/>
        <stop offset="1"/>
      </radialGradient>
      <path id="path3293" d="M311.9 478.2c-15.3.4-31.5 2-48.1 4.7-17.4 2.9-35.8 7.2-54.8 12.7-19.8 5.7-40.7 13-62.4 21.7h-.2c-.7.3-1.3.9-1.5 1.7L59 810.8c-.5 1.5.4 3.1 1.4 4l5.8 4.3.2.2c1.4.9 2.8.9 3.4.8h.2c32.3-12.1 61-20.8 87.9-26.6 26.2-5.6 49.8-8.3 72.2-8.2 18.7.1 36.3 2.1 53.8 5.9 15.8 3.5 31.1 8.4 46.9 15.1 22.1 9.6 42.4 21.7 57.6 31.2l.1.1v.1c.5.2 1.9.9 3.2.3 0 0 3.8-2.2 4.9-2.8l.4-.3c.8-.5 1.8-1.2 2.1-2.6l.1-.3v.1c.2-.6 85.7-284.1 85.7-284.1l2.9-9.8c0-.2.1-.5.1-.8 0-1.1-.5-2.2-1.3-2.7h-.1c-36.5-23.9-77.7-47-132.1-54.1-13.7-2.1-28-2.7-42.5-2.4z" opacity=".2" fill="url(#path3293_1_)"/>
      <radialGradient id="path3300_1_" cx="249.314" cy="184.782" r="532.039" gradientTransform="matrix(.7921 0 0 -.7973 322.418 715.204)" gradientUnits="userSpaceOnUse">
        <stop offset=".25" stop-color="#fff"/>
        <stop offset="1"/>
      </radialGradient>
      <path id="path3300" d="M526.1 564.6c-1 0-2 .4-3.6 1.4-.4.3-1.4.9-2.5 1.8-2.3 1.8-3.7 3.2-4.1 4.2 0 .1-.1.2-.1.2v-.1.1l-86.2 289.1c-1.5 4.3 2.5 6.7 2.9 6.9 22.1 14.4 43.2 25.7 64.5 34.5 12.5 5.2 25.2 9.7 37.9 13.2 13.8 3.9 27.9 6.9 42.1 8.8 15.2 2.1 30.9 3.2 46.6 3.1 16.7-.1 34-1.4 51.5-3.9 18.4-2.7 37.5-6.7 56.6-12.1 20.2-5.7 41.1-13 62.1-21.7l.1-.1c.6-.4 2-1.2 2.7-2.6 0 0 84.2-284.4 84.2-284.5v-.1c.1-.4.1-.8.1-1.2 0-2.3-1.5-3.7-1.5-3.8l-7.1-5.4c-.5-.5-1.7-1.3-4.7-.8-21.6 7.1-42.5 13-62.1 17.6-18.9 4.4-37.2 7.7-54.5 9.8-32.6 4-62 4-90.1 0-24.7-3.5-48-10.1-71.3-20.3-18.8-8.2-38-18.7-60.4-33.3h-.1c-1.3-.5-2.2-.8-3-.8z" opacity=".2" fill="url(#path3300_1_)"/>
      <radialGradient id="path3307_1_" cx="249.274" cy="184.771" r="532.076" gradientTransform="matrix(.7921 0 0 -.7973 322.418 715.204)" gradientUnits="userSpaceOnUse">
        <stop offset=".25" stop-color="#fff"/>
        <stop offset="1"/>
      </radialGradient>
      <path id="path3307" d="M624.6 212.5l-1.5 1c-3 2.1-4.7 3.8-5.2 4.9l-.3 1-86.5 289.8c-.2.7-.3 1.3-.3 1.9 0 3.2 2.9 4.8 3 4.8 6.9 4.5 13.9 8.7 21 12.7 33.2 20 66 33.3 100.3 40.7 19.9 4.3 40.5 6.6 61.4 6.8 22.6.2 46.2-2 70.2-6.5 35.6-5.5 71.7-16.2 107.4-31.8l.1-.1c.7-.3 2.1-1.3 2.9-2.7 0-.1 88-292.4 88-292.4.2-.5.3-1 .3-1.5 0-2.5-2.2-4.6-4.3-6.4-1.2-1.1-2.8-2.5-3.9-3-2.4-1.1-4.8-.7-5.6-.3l-.1.1c-21.5 8.6-42.4 15.8-62.2 21.5-18.9 5.4-37.3 9.5-54.7 12.3-16.6 2.6-32.8 4-48.1 4.2-14.5.2-28.8-.6-42.5-2.6-24.6-3.4-48.1-10.3-71.9-21-23.6-10.6-44.8-23.7-60.6-34-3-1.2-4.2-1.1-6.9.6z" opacity=".2" fill="url(#path3307_1_)"/>
      <radialGradient id="path3314_1_" cx="249.268" cy="184.759" r="532.12" gradientTransform="matrix(.7921 0 0 -.7973 322.418 715.204)" gradientUnits="userSpaceOnUse">
        <stop offset=".25" stop-color="#fff"/>
        <stop offset="1"/>
      </radialGradient>
      <path id="path3314" d="M344.6 131.4c-29.8 6.3-62.4 16.4-96.9 30.2-.3.1-1.3.5-1.6 1.7l-4.5 14.9L158.7 456c-.1.3-.1.6-.1 1 0 1.4.6 3 1.3 3.5.1.1.3.2.4.2l.6.4 5.1 3.9.2.1c.2.1.4.2.5.3 1 .4 1.3.4 1.6.4h.3c.8-.1 2.5-.8 2.5-.8 75.5-29 136-39.6 190.1-33.1 23.1 2.7 45.5 8.7 68.3 18.1 18.2 7.5 37 17.3 59.2 30.9l.3.1h.1l.3.1h.1l.1.1s1.7.8 3.2.5l5.4-2.4.3-.2c.7-.5 1.8-1.3 2.2-2.7L555.2 294l29.3-98 2-6.5v-.2l1.4-4.8c0-.2.1-.3.1-.5v-.4c0-1.1-.5-2.1-1.3-2.6-17.3-11.4-31.1-19.6-44.6-26.6l-.9-.5c-39-20.1-76.5-29.9-118.1-30.7-24.5-.2-50.9 2.4-78.5 8.2z" opacity=".2" fill="url(#path3314_1_)"/>
    </g>
    <g id="g3316">
      <g id="g3318">
        <g id="g3320">
          <g id="g3322">
            <g id="g3324">
              <linearGradient id="path3343_1_" gradientUnits="userSpaceOnUse" x1="-390.161" y1="137.066" x2="131.093" y2="137.066" gradientTransform="matrix(.814 0 0 -.814 356.99 738.789)">
                <stop offset="0" stop-color="#365fb5"/>
                <stop offset=".4" stop-color="#91a5db"/>
                <stop offset=".725" stop-color="#bbc7ea"/>
                <stop offset="1" stop-color="#708fd1"/>
              </linearGradient>
              <path id="path3343" d="M126.5 486.9c175.8-72.4 260.9-33.8 337.2 18l-88 302.5C299.1 756 216 713.6 39.4 786.6l86-299.3 1.1-.4z" fill="url(#path3343_1_)"/>
            </g>
          </g>
        </g>
        <radialGradient id="path3368_1_" cx="158.981" cy="297.119" r="572.244" gradientTransform="matrix(.814 0 0 -.814 356.99 738.789)" gradientUnits="userSpaceOnUse">
          <stop offset=".004" stop-color="#d8eeed"/>
          <stop offset=".173" stop-color="#98d8d7"/>
          <stop offset=".224" stop-color="#8ed3d3"/>
          <stop offset=".309" stop-color="#74c6ca"/>
          <stop offset=".418" stop-color="#49b1ba"/>
          <stop offset=".448" stop-color="#3caab5"/>
          <stop offset=".56" stop-color="#2e81a4"/>
          <stop offset=".684" stop-color="#215b94"/>
          <stop offset=".783" stop-color="#19448b"/>
          <stop offset=".845" stop-color="#163b87"/>
          <stop offset="1" stop-color="#0b317d"/>
        </radialGradient>
        <path id="path3368" d="M45.9 795.5c.6.1 1.6-.5 1.6-.5 1.3.9 2.3 1.4 2.3 1.4s-2 .5-3.9-.9z" fill="url(#path3368_1_)"/>
        <path id="path3370" class="st6" d="M372.6 810.8s1.2 1.1 2.5.8l-5.3 3.1c-1.7.8-3.5-.5-3.5-.5l6.3-3.4z"/>
        <radialGradient id="path3395_1_" cx="159.463" cy="295.726" r="571.951" gradientTransform="matrix(.814 0 0 -.814 356.99 738.789)" gradientUnits="userSpaceOnUse">
          <stop offset=".004" stop-color="#d8eeed"/>
          <stop offset=".173" stop-color="#98d8d7"/>
          <stop offset=".224" stop-color="#8ed3d3"/>
          <stop offset=".309" stop-color="#74c6ca"/>
          <stop offset=".418" stop-color="#49b1ba"/>
          <stop offset=".448" stop-color="#3caab5"/>
          <stop offset=".56" stop-color="#2e81a4"/>
          <stop offset=".684" stop-color="#215b94"/>
          <stop offset=".783" stop-color="#19448b"/>
          <stop offset=".845" stop-color="#163b87"/>
          <stop offset="1" stop-color="#152469"/>
        </radialGradient>
        <path id="path3395" d="M47.6 795.1s-1 .6-1.6.5l-5.8-4.5-.1-.1c.8.2 1.8.1 2.1.1l5.4 4z" fill="url(#path3395_1_)"/>
        <path id="path3397" class="st6" d="M375.6 806.6c.6.4 1.2.9 1.8 2.1-.3 1.6-1.6 2.4-2.4 2.9-1.1.2-2.6-.7-2.6-.7.8-.7 2.2-1.7 3.2-4.3z"/>
        <path id="path3399" d="M40.2 791.1c-1.1-1-1.9-2.6-1.4-4.1l1-.5c-.4 2.3 1.2 3.8 2.4 4.6 0 0-.9.4-2 0z" fill="#172e65"/>
        <radialGradient id="path3424_1_" cx="159.74" cy="296.394" r="572.331" gradientTransform="matrix(.814 0 0 -.814 356.99 738.789)" gradientUnits="userSpaceOnUse">
          <stop offset=".004" stop-color="#d8eeed"/>
          <stop offset=".173" stop-color="#98d8d7"/>
          <stop offset=".224" stop-color="#8ed3d3"/>
          <stop offset=".309" stop-color="#74c6ca"/>
          <stop offset=".418" stop-color="#49b1ba"/>
          <stop offset=".448" stop-color="#3caab5"/>
          <stop offset=".56" stop-color="#2e81a4"/>
          <stop offset=".684" stop-color="#215b94"/>
          <stop offset=".783" stop-color="#19448b"/>
          <stop offset=".845" stop-color="#163b87"/>
          <stop offset="1" stop-color="#0b317d"/>
        </radialGradient>
        <path id="path3424" d="M47.3 794.8C215.2 729.2 290.4 765 367 814.1c-45.8-29.5-92.9-53-157.9-53.4-43.5-.2-95 10.8-159.4 35.8-.1 0-1.4-.6-2.4-1.7z" fill="url(#path3424_1_)"/>
        <g id="g3426">
          <path id="path3428" class="st10" d="M372.5 811.1c-76.5-51.5-155.8-90.8-330.2-19.9-1.2-.7-3-2.5-2.6-4.7 177.1-75.3 259.4-31.4 335.9 20.1-.8 2.8-2.2 3.8-3.1 4.5z"/>
          <path id="path3430" class="st10" d="M372.6 811.1l-6.2 3.2c-76.5-49.2-153.8-83.2-318.8-19.2l-5.5-4c174.5-70.9 254-31.5 330.5 20z"/>
        </g>
        <linearGradient id="path3437_1_" gradientUnits="userSpaceOnUse" x1="128.101" y1="276.85" x2="38.98" y2="-36.637" gradientTransform="matrix(.814 0 0 -.814 356.99 738.789)">
          <stop offset="0" stop-color="#98d8d7"/>
          <stop offset="1" stop-color="#152469"/>
        </linearGradient>
        <path id="path3437" d="M375.5 806.7l88.1-301.8c1 .6 1.5 1.1 2 1.7l-88.3 302.3c-.5-1.4-1.8-2.2-1.8-2.2z" fill="url(#path3437_1_)"/>
        <radialGradient id="path3462_1_" cx="159.83" cy="296.45" r="573.188" gradientTransform="matrix(.814 0 0 -.814 356.99 738.789)" gradientUnits="userSpaceOnUse">
          <stop offset=".004" stop-color="#d8eeed"/>
          <stop offset=".173" stop-color="#98d8d7"/>
          <stop offset=".224" stop-color="#8ed3d3"/>
          <stop offset=".309" stop-color="#74c6ca"/>
          <stop offset=".418" stop-color="#49b1ba"/>
          <stop offset=".448" stop-color="#3caab5"/>
          <stop offset=".56" stop-color="#2e81a4"/>
          <stop offset=".684" stop-color="#215b94"/>
          <stop offset=".783" stop-color="#19448b"/>
          <stop offset=".845" stop-color="#163b87"/>
          <stop offset="1" stop-color="#152469"/>
        </radialGradient>
        <path id="path3462" d="M464.2 502.8h.2c1.1.8 1.6 2.3 1.3 3.7l-.1.2c-.5-.5-1-1.1-2-1.7l.6-2.2z" fill="url(#path3462_1_)"/>
        <path id="polygon3464" opacity=".66" fill="#063367" d="M124.5 487.1l1 .2-85.7 299.2-1 .5z"/>
        <linearGradient id="path3471_1_" gradientUnits="userSpaceOnUse" x1="-389.546" y1="-61.07" x2="-386.721" y2="-61.07" gradientTransform="matrix(.814 0 0 -.814 356.99 738.789)">
          <stop offset="0" stop-color="#def3f1"/>
          <stop offset="1" stop-color="#5085bc"/>
        </linearGradient>
        <path id="path3471" d="M39.9 786.4c.4-.2.8-.3 1.2-.5-.4.2-.7.4-1.2.5zm2.3 4.7c-.6-.4-1.2-1-1.7-1.7.4.7 1.1 1.3 1.7 1.7 0-.1 0-.1 0 0z" opacity=".42" fill="url(#path3471_1_)"/>
        <linearGradient id="path3478_1_" gradientUnits="userSpaceOnUse" x1="13.034" y1="97.382" x2="133.478" y2="97.382" gradientTransform="matrix(.814 0 0 -.814 356.99 738.789)">
          <stop offset="0" stop-color="#def3f1"/>
          <stop offset="1" stop-color="#5085bc"/>
        </linearGradient>
        <path id="path3478" d="M465.3 504.1l-1.7 1-7.3 7.2v.1c-11.9 40.6-78.6 268.3-88.7 302.4.6.2 1.4.2 2.2-.1l5.3-3.1h-.1c.8-.6 2-1.4 2.3-2.9v.1l85.4-292.2 2.9-10c.1-.6 0-1-.1-1.6 0-.3-.1-.6-.2-.9z" opacity=".42" fill="url(#path3478_1_)"/>
        <linearGradient id="path3494_1_" gradientUnits="userSpaceOnUse" x1="-391.143" y1="798.144" x2="-391.143" y2="798.144" gradientTransform="matrix(.814 0 0 -.814 356.99 738.789)">
          <stop offset="0" stop-color="#094992"/>
          <stop offset=".668" stop-color="#8bcde2"/>
          <stop offset="1" stop-color="#e6f6f9"/>
        </linearGradient>
        <linearGradient id="path3514_1_" gradientUnits="userSpaceOnUse" x1="-283.527" y1="324.508" x2="131.83" y2="324.508" gradientTransform="matrix(.814 0 0 -.814 356.99 738.789)">
          <stop offset=".006" stop-color="#7090c3"/>
          <stop offset=".545" stop-color="#c1e7ed"/>
          <stop offset="1" stop-color="#fff"/>
        </linearGradient>
        <path id="path3514" d="M126.2 485c176.6-73 258.2-35.5 338.1 17.8l-.7 2.1c-84-54.3-160.3-90.5-336.1-18.7l-1.3-1.2z" opacity=".33" fill="url(#path3514_1_)"/>
        <radialGradient id="path3521_1_" cx="-284.742" cy="310.315" r="1.405" gradientTransform="matrix(.814 0 0 -.814 356.99 738.789)" gradientUnits="userSpaceOnUse">
          <stop offset="0" stop-color="#7e9ec4"/>
          <stop offset="1" stop-color="#0a50a1"/>
        </radialGradient>
        <path id="path3521" d="M125.5 487.3l-1-.3c.4-1.2 1.3-1.7 1.6-1.8h.1l-.7 2.1z" fill="url(#path3521_1_)"/>
        <radialGradient id="path3544_1_" cx="-558.885" cy="-44.215" r="702.886" gradientTransform="matrix(.814 0 0 -.814 356.99 738.789)" gradientUnits="userSpaceOnUse">
          <stop offset=".004" stop-color="#d8eeed"/>
          <stop offset=".173" stop-color="#98d8d7"/>
          <stop offset=".224" stop-color="#8ed3d3"/>
          <stop offset=".309" stop-color="#74c6ca"/>
          <stop offset=".418" stop-color="#49b1ba"/>
          <stop offset=".448" stop-color="#3caab5"/>
          <stop offset=".499" stop-color="#369fb5"/>
          <stop offset=".631" stop-color="#2a88b4"/>
          <stop offset=".713" stop-color="#257fb4"/>
          <stop offset="1" stop-color="#4161ab"/>
        </radialGradient>
        <path id="path3544" d="M372.7 811c-76.5-51.4-155.8-90.7-330.2-19.9-1.2-.7-3-2.4-2.6-4.6 177.1-75.4 259.4-31.3 335.9 20.1-.7 2.7-2.2 3.7-3.1 4.4z" opacity=".5" fill="url(#path3544_1_)"/>
      </g>
      <g id="g3546">
        <g id="g3548">
          <linearGradient id="path3565_1_" gradientUnits="userSpaceOnUse" x1="80.97" y1="31.086" x2="598.414" y2="31.086" gradientTransform="matrix(.814 0 0 -.814 356.99 738.789)">
            <stop offset="0" stop-color="#e3c509"/>
            <stop offset=".167" stop-color="#fade0d"/>
            <stop offset=".333" stop-color="#f9e123"/>
            <stop offset=".625" stop-color="#e3c509"/>
            <stop offset="1" stop-color="#ac9a0e"/>
          </linearGradient>
          <path id="path3565" d="M509.8 534.1c76.4 51.4 154.6 89.1 334.3 27.7l-83.8 291.7c-176.3 72.9-261 31.7-337.4-20.1l86.9-299.3z" fill="url(#path3565_1_)"/>
        </g>
        <linearGradient id="path3572_1_" gradientUnits="userSpaceOnUse" x1="511.555" y1="-149.217" x2="509.351" y2="-157.445" gradientTransform="matrix(.814 0 0 -.814 356.99 738.789)">
          <stop offset="0" stop-color="#de980d"/>
          <stop offset="1" stop-color="#a85d10"/>
        </linearGradient>
        <path id="path3572" d="M775.1 863.9c-.8 1.6-2.4 2.5-2.9 2.8-.1 0-.2.1-.2.1s-1.5.1-2.8-.9c3.4-1.9 4.4-5.7 4.4-5.7s2.1 1.8 1.5 3.7z" fill="url(#path3572_1_)"/>
        <linearGradient id="path3579_1_" gradientUnits="userSpaceOnUse" x1="511.682" y1="27.198" x2="616.596" y2="27.198" gradientTransform="matrix(.814 0 0 -.814 356.99 738.789)">
          <stop offset="0" stop-color="#deb150"/>
          <stop offset="1" stop-color="#fff8b3"/>
        </linearGradient>
        <path id="path3579" d="M775.1 863.9c.3-1.7-1.6-3.2-1.6-3.2l83.6-291.3s1.3 1.2 1.8 2.1l-83.8 292.4z" fill="url(#path3579_1_)"/>
        <linearGradient id="path3586_1_" gradientUnits="userSpaceOnUse" x1="615.479" y1="212.14" x2="615.479" y2="205.319" gradientTransform="matrix(.814 0 0 -.814 356.99 738.789)">
          <stop offset=".006" stop-color="#c67c0c"/>
          <stop offset="1" stop-color="#de980d"/>
        </linearGradient>
        <path id="path3586" d="M858.8 571.6s-.3-.9-1.8-2.1c.7-2.8.2-3.4.2-3.4l.2.1c.1 0 2.2 2 1.4 5.4z" fill="url(#path3586_1_)"/>
        <linearGradient id="path3593_1_" gradientUnits="userSpaceOnUse" x1="600.563" y1="220.233" x2="604.829" y2="213.136" gradientTransform="matrix(.814 0 0 -.814 356.99 738.789)">
          <stop offset=".006" stop-color="#fed40f"/>
          <stop offset="1" stop-color="#a85d10"/>
        </linearGradient>
        <path id="path3593" d="M850.5 564.6s-2.3-2.8-7-2c.2-1 .6-2.3 2.2-3 2.8-.4 4.2.3 4.8.9.3.3.5.6.5.6.3 1.7-.5 3.5-.5 3.5z" fill="url(#path3593_1_)"/>
        <linearGradient id="path3600_1_" gradientUnits="userSpaceOnUse" x1="611.524" y1="214.76" x2="608.892" y2="211.625" gradientTransform="matrix(.814 0 0 -.814 356.99 738.789)">
          <stop offset=".006" stop-color="#fed40f"/>
          <stop offset="1" stop-color="#a85d10"/>
        </linearGradient>
        <path id="path3600" d="M850.4 560.6l7 5.6c.4 1.9-.4 3.7-.4 3.7l-6.9-5.5s.7-2.2.3-3.8z" fill="url(#path3600_1_)"/>
        <path id="polygon3602" opacity=".66" fill="#b37e00" d="M766 855.4l84.1-291.5 7.1 5.7L773.7 861l-.4.7z"/>
        <path id="polygon3611" fill="#d9a200" d="M495.5 539.5l5.9-4-85.1 296.8-6.7 5.3v-.7z"/>
        <linearGradient id="path3618_1_" gradientUnits="userSpaceOnUse" x1="555.023" y1="35.761" x2="545.789" y2="38.408" gradientTransform="matrix(.814 0 0 -.814 356.99 738.789)">
          <stop offset="0" stop-color="#b37e00"/>
          <stop offset="1" stop-color="#ff9e00"/>
        </linearGradient>
        <path id="path3618" d="M759.3 853.8l84.2-291.3c.1 0 .3-.2.5-.3 4.4-.4 6.5 1.9 6.5 1.9L766.6 855s-3.5-2.8-7.3-1.2z" opacity=".66" fill="url(#path3618_1_)"/>
        <path id="path3620" d="M772.2 866.7c-172.9 73.9-283.8 28.4-360.2-23l.8-.7c76.4 51.4 194 94.3 356.4 22.6 1.3 1.1 3 1.1 3 1.1z" fill="#a85d10"/>
        <linearGradient id="path3627_1_" gradientUnits="userSpaceOnUse" x1="506.845" y1="-144.352" x2="502.241" y2="-154.693" gradientTransform="matrix(.814 0 0 -.814 356.99 738.789)">
          <stop offset=".006" stop-color="#ffd100"/>
          <stop offset="1" stop-color="#a8710a"/>
        </linearGradient>
        <path id="path3627" d="M766.5 854.9l7.2 6.1s-1 3.4-4.8 5.1l-7.3-6c3.9-1.7 4.9-5.2 4.9-5.2z" opacity=".66" fill="url(#path3627_1_)"/>
        <linearGradient id="path3636_1_" gradientUnits="userSpaceOnUse" x1="77.161" y1="-154.542" x2="498.783" y2="-154.542" gradientTransform="matrix(.814 0 0 -.814 356.99 738.789)">
          <stop offset="0" stop-color="#de980d"/>
          <stop offset=".4" stop-color="#fdda10"/>
          <stop offset="1" stop-color="#de980d"/>
        </linearGradient>
        <path id="path3636" d="M759.4 853.4c-.7 4.5 3.6 7.3 3.6 7.3-183.2 66.3-261.8 26.7-343.2-22.3 1.3-1 2-1.8 2.8-4.9.2.1 1.2-.1 1.4 0 78.8 48.3 169.7 88.4 335.4 19.9z" fill="url(#path3636_1_)"/>
        <path id="path3638" d="M412.8 843.4l7.1-5.1c70 43.6 168.1 91.4 342.2 21.5l7.2 6c-161.8 71.8-280.1 29-356.5-22.4z" fill="#c67c0c"/>
        <path id="path3640" class="st33" d="M413.4 843.6l-.8.6s-4.6-2.6-3-7.3c.4 4.6 3.8 6.7 3.8 6.7z"/>
        <linearGradient id="path3651_1_" gradientUnits="userSpaceOnUse" x1="74.322" y1="-125.501" x2="67.533" y2="-117.961" gradientTransform="matrix(.814 0 0 -.814 356.99 738.789)">
          <stop offset="0" stop-color="#de980d"/>
          <stop offset=".1" stop-color="#de980d"/>
          <stop offset=".7" stop-color="#fdda10"/>
          <stop offset="1" stop-color="#de980d"/>
        </linearGradient>
        <path id="path3651" d="M409.6 836.9l6.6-5.4c-.4 4.9 4.3 6.7 4.3 6.7l-7.3 5.6c.1-.1-3.9-2.1-3.6-6.9z" fill="url(#path3651_1_)"/>
        <linearGradient id="path3662_1_" gradientUnits="userSpaceOnUse" x1="74.612" y1="-112.805" x2="79.403" y2="-121.448" gradientTransform="matrix(.814 0 0 -.814 356.99 738.789)">
          <stop offset="0" stop-color="#de980d"/>
          <stop offset=".4" stop-color="#febf0f"/>
          <stop offset=".8" stop-color="#fed40f"/>
          <stop offset="1" stop-color="#de980d"/>
        </linearGradient>
        <path id="path3662" d="M415.8 831.6c2.4-.9 4.6.2 7.1 1.6-.8 3.1-1.4 4.2-2.7 5.1-1.7-.8-4.8-2.7-4.4-6.7z" fill="url(#path3662_1_)"/>
        <path id="path3664" class="st33" d="M502.5 533l-1.3 2.5-5.9 4.2c.4-2 5.3-5.5 6.8-6.5l.4-.2z"/>
        <radialGradient id="path3671_1_" cx="181.284" cy="254.267" r="5.201" gradientTransform="matrix(.814 0 0 -.814 356.99 738.789)" gradientUnits="userSpaceOnUse">
          <stop offset="0" stop-color="#feeb71"/>
          <stop offset="1" stop-color="#de980d"/>
        </radialGradient>
        <path id="path3671" d="M509.1 535.9c-3.5-2-6.6-1-7.9-.3.2-.7.9-2.3.9-2.3 2.9-1.8 4.1-1.8 6.7-.5.9 1.2.6 2.3.3 3.1z" fill="url(#path3671_1_)"/>
        <linearGradient id="path3678_1_" gradientUnits="userSpaceOnUse" x1="134.479" y1="65.98" x2="124.777" y2="68.762" gradientTransform="matrix(.814 0 0 -.814 356.99 738.789)">
          <stop offset=".006" stop-color="#ffefbb"/>
          <stop offset="1" stop-color="#ffbf00"/>
        </linearGradient>
        <path id="path3678" d="M423.5 833.8c-2.5-1.5-5.4-2.6-7.8-1.6l85.7-296.6c1.3-.6 4.4-1.7 7.8.4l-85.7 297.8z" fill="url(#path3678_1_)"/>
        <linearGradient id="path3713_1_" gradientUnits="userSpaceOnUse" x1="499.587" y1="-145.002" x2="493.346" y2="-139.605" gradientTransform="matrix(.814 0 0 -.814 356.99 738.789)">
          <stop offset="0" stop-color="#eab949"/>
          <stop offset=".072" stop-color="#edc25a"/>
          <stop offset=".278" stop-color="#f3d883"/>
          <stop offset=".478" stop-color="#f8e9a4"/>
          <stop offset=".67" stop-color="#fcf5bc"/>
          <stop offset=".848" stop-color="#fefcca"/>
          <stop offset="1" stop-color="#ffffcf"/>
        </linearGradient>
        <path id="path3713" d="M762.1 859.9s-3.2-2-2.6-6.5c4.5-1.2 7.2 1.6 7.2 1.6s-.8 3.2-4.6 4.9z" fill="url(#path3713_1_)"/>
      </g>
      <g id="g3715">
        <linearGradient id="path3738_1_" gradientUnits="userSpaceOnUse" x1="-265.713" y1="575.039" x2="255.785" y2="575.039" gradientTransform="matrix(.814 0 0 -.814 356.99 738.789)">
          <stop offset="0" stop-color="#c14219"/>
          <stop offset=".4" stop-color="#f68521"/>
          <stop offset=".725" stop-color="#f9bd78"/>
          <stop offset="1" stop-color="#f68521"/>
        </linearGradient>
        <path id="path3738" d="M478.3 450.3c-46-31-95.5-60-165.8-60.5-46.4-.4-101.6 12.8-171.8 41.8l86.9-301.1c176.4-73 261.2-31.6 337.6 20.1l-86.9 299.7z" fill="url(#path3738_1_)"/>
        <path id="path3740" class="st40" d="M478.2 450.2l87-299.6c1 .6 1.3 1.1 1.8 1.7l-86.9 300c-.5-1.2-1.9-2.1-1.9-2.1z"/>
        <path id="path3742" class="st40" d="M149 440.4c27.8-11.4 53.5-19.9 77.4-25.7 5.8-1.4 11-2.6 17.1-3.8 5.6-1.1 11.2-2.2 16.6-3 8.5-1.3 16.7-2.4 24.9-3 6.8-.5 13.5-.9 20.1-1 6.3 0 12.6 0 18.6.3 5.4.3 10.6.7 15.8 1.3 4.4.5 8.7 1.1 12.9 1.8 9 1.5 17.6 3.4 26 5.8 33.8 9.6 63.8 25.9 91.4 44.2-.2.1-.9-.2-1.1-.3-.3-.1-.4-.1-.7-.3-37.3-23.6-77.3-44.3-126.8-50.3-50.6-6.2-109.6 2.5-189.1 34 0 0-1.8.8-2.5.9-.6.2-.4-.3-.6-.9z"/>
        <path id="path3744" class="st40" d="M475.2 454.7s1.1.8 2.5.5l-5.4 2.5c-1.5.4-3.3-.5-3.3-.5l6.2-2.5z"/>
        <path id="path3746" d="M149.1 440.4s.4.6.6 1c-.5.1-.6.2-1.9-.4-.2-.1-.4-.3-.7-.5l-5.7-4.4-.5-.4c.8 0 1.3.3 1.7.2l6.5 4.5z" fill="#b81a00"/>
        <path id="path3748" class="st42" d="M478.3 450.3c.6.4 1.3.6 1.8 1.9-.4 1.7-1.7 2.5-2.5 3-1.4.4-2.7-.6-2.7-.6 1-.7 2.5-1.8 3.4-4.3z"/>
        <path id="path3750" class="st43" d="M565.7 148.6c1.2.8 1.6 2.3 1.3 3.7l-.1.1c-.5-.5-.8-1.1-1.8-1.8l.6-2z"/>
        <path id="path3752" class="st44" d="M141 435.9c-.9-.6-1.7-3.2-1.2-4.7l1.1-.3c-.5 2.2.9 4.7 2.1 5.4.1 0-.8.4-2-.4z"/>
        <g id="g3754">
          <g id="g3756">
            <linearGradient id="SVGID_1_" gradientUnits="userSpaceOnUse" x1="-159.969" y1="748.396" x2="-157.896" y2="748.396" gradientTransform="matrix(.814 0 0 -.814 356.99 738.789)">
              <stop offset="0" stop-color="#fd7e36"/>
              <stop offset="1" stop-color="#bd6f4f"/>
            </linearGradient>
            <path id="SVGID_37_" d="M227.6 130.6l-.8-.2c.3-1.3 1.3-1.7 1.6-1.8h.1c0-.1-.4.5-.9 2z" fill="url(#SVGID_1_)"/>
          </g>
        </g>
        <g id="g3764">
          <path id="path3766" class="st42" d="M475.4 454.7c-82.2-57-182.9-92.8-332.5-18.5l6.1 4.3c163.5-66.8 248.7-30.7 320.4 16.6l6-2.4z"/>
          <path id="path3768" class="st42" d="M475.2 454.7c-47.1-30.7-91.1-56.2-160.9-58.2-50.9 1-90.1 7.5-171.3 39.8-1.2-.6-2.7-2.4-2.3-4.6 70.4-30 126.3-42.9 172.6-42.5 70.3.7 119 30.1 165 61-.8 2.8-2.3 3.8-3.1 4.5z"/>
        </g>
        <path id="path3770" class="st44" d="M226.8 130.4l.8.2-86.7 300.9c-.2-.1-1.1-.3-1.1-.3l87-300.8z"/>
        <linearGradient id="path3797_1_" gradientUnits="userSpaceOnUse" x1="-158.957" y1="760.318" x2="256.4" y2="760.318" gradientTransform="matrix(.814 0 0 -.814 356.99 738.789)">
          <stop offset="0" stop-color="#fc2b21"/>
          <stop offset=".236" stop-color="#ff590a"/>
          <stop offset=".248" stop-color="#fb570b"/>
          <stop offset=".327" stop-color="#e74c0e"/>
          <stop offset=".417" stop-color="#d84511"/>
          <stop offset=".525" stop-color="#d04013"/>
          <stop offset=".697" stop-color="#cd3f13"/>
          <stop offset=".796" stop-color="#d04213"/>
          <stop offset=".869" stop-color="#d84b14"/>
          <stop offset=".933" stop-color="#e65b16"/>
          <stop offset=".993" stop-color="#f97219"/>
          <stop offset="1" stop-color="#fc7519"/>
        </linearGradient>
        <path id="path3797" d="M565.2 150.6c-76.5-51.7-162-91.8-337.6-20 .4-1.5.8-2 .8-2 176.4-73 260.9-31.7 337.3 20l-.5 2z" opacity=".66" fill="url(#path3797_1_)"/>
        <g id="g3801" opacity=".6">
          <linearGradient id="path3808_1_" gradientUnits="userSpaceOnUse" x1="-265.836" y1="554.868" x2="-149.135" y2="554.868" gradientTransform="matrix(.814 0 0 -.814 356.99 738.789)">
            <stop offset="0" stop-color="#fd7e36"/>
            <stop offset="1" stop-color="#bd6f4f"/>
          </linearGradient>
          <path id="path3808" d="M230.5 132.6c-.5.2-2.2 0-2.2 0l-87.7 303.7 6.5 4.4c.2.2.5.4.7.5 1.1.5 1.3.5 1.7.4L235.4 140l.3-.9-5.2-6.5z" opacity=".6" fill="url(#path3808_1_)"/>
        </g>
        <linearGradient id="path3815_1_" gradientUnits="userSpaceOnUse" x1="277.743" y1="705.24" x2="-104.599" y2="790.462" gradientTransform="matrix(.814 0 0 -.814 356.99 738.789)">
          <stop offset="0" stop-color="#fe560d"/>
          <stop offset="1" stop-color="#8c1501"/>
        </linearGradient>
        <path id="path3815" d="M555.5 158.6l.1.1c0-.1 0-.2-.1-.1z" opacity=".5" fill="url(#path3815_1_)"/>
        <linearGradient id="path3831_1_" gradientUnits="userSpaceOnUse" x1="136.867" y1="535.12" x2="258.044" y2="535.12" gradientTransform="matrix(.814 0 0 -.814 356.99 738.789)">
          <stop offset="0" stop-color="#fd7e36"/>
          <stop offset="1" stop-color="#fc895b"/>
        </linearGradient>
        <path id="path3831" d="M565.7 148.7l-.5 1.9-4.1 3.4-5.5 4.5v.2c-18.2 62.5-75.1 257.5-87.2 298.1.1.1.2.1.4.2.1 0 .1.1.2.1 0 0 1.8.9 3.3.5l5.4-2.5h-.2.1c.7-.6 2-1.4 2.4-2.8v-.2l83.3-287.7 2.1-7.1.1-.3 1.4-4.7c.3-1 .2-3-1.2-3.6z" opacity=".6" fill="url(#path3831_1_)"/>
        <linearGradient id="path3848_1_" gradientUnits="userSpaceOnUse" x1="-265.515" y1="389.43" x2="149.397" y2="389.43" gradientTransform="matrix(.814 0 0 -.814 356.99 738.789)">
          <stop offset="0" stop-color="#fd9b20"/>
          <stop offset=".25" stop-color="#fd9b20"/>
          <stop offset=".337" stop-color="#fdb830"/>
          <stop offset=".429" stop-color="#fed23e"/>
          <stop offset=".485" stop-color="#fedb43"/>
          <stop offset=".75" stop-color="#fe8411"/>
          <stop offset="1" stop-color="#fe560d"/>
        </linearGradient>
        <path id="path3848" d="M475.4 454.5c-47.1-30.7-91.1-56.2-160.8-58.2-50.9 1-90.1 7.5-171.3 39.8-1.2-.6-2.7-2.4-2.4-4.5 70.4-30 126.3-43 172.7-42.5 70.3.7 118.9 30.1 165 61-.9 2.7-2.4 3.8-3.2 4.4z" opacity=".5" fill="url(#path3848_1_)"/>
        <path id="path3850" d="M227.6 129c-.3.3-.7.7-.8 1.4l-4.5 15.3-82.5 285.5c-.5 1.5.3 4.1 1.2 4.7.1.1.1.1.2.1l.2.2-.8.1 87.7-303.7s1.7.2 2.2 0l-2.9-3.6z" fill="none"/>
        <path id="path3852" class="st43" d="M565.7 148.6c1.2.8 1.6 2.3 1.3 3.7l-.1.1c-.5-.5-.8-1.1-1.8-1.8l.6-2z"/>
        <g id="g3854">
          <g id="g3856">
            <linearGradient id="SVGID_2_" gradientUnits="userSpaceOnUse" x1="-159.957" y1="748.396" x2="-157.879" y2="748.396" gradientTransform="matrix(.814 0 0 -.814 356.99 738.789)">
              <stop offset="0" stop-color="#fd7e36"/>
              <stop offset="1" stop-color="#bd6f4f"/>
            </linearGradient>
            <path id="SVGID_46_" d="M227.6 130.6l-.8-.2c.3-1.3 1.2-1.7 1.6-1.8h.1c0-.1-.4.5-.9 2z" fill="url(#SVGID_2_)"/>
          </g>
        </g>
      </g>
      <g id="g3891">
        <linearGradient id="path3914_1_" gradientUnits="userSpaceOnUse" x1="205.294" y1="462.052" x2="726.179" y2="462.052" gradientTransform="matrix(.814 0 0 -.814 356.99 738.789)">
          <stop offset="0" stop-color="#8ec01f"/>
          <stop offset=".167" stop-color="#afdb33"/>
          <stop offset=".333" stop-color="#bfe254"/>
          <stop offset=".667" stop-color="#9c2"/>
          <stop offset="1" stop-color="#758c19"/>
        </linearGradient>
        <path id="path3914" d="M948.1 201.7c-176.2 72.8-260.8 31.9-337.1-19.5l-86.9 301.4c76.2 51.7 168.3 94.1 337.2 18.5l86.8-300.4z" fill="url(#path3914_1_)"/>
        <linearGradient id="path3921_1_" gradientUnits="userSpaceOnUse" x1="312.051" y1="649.317" x2="728.144" y2="649.317" gradientTransform="matrix(.814 0 0 -.814 356.99 738.789)">
          <stop offset="0" stop-color="#d3ed89"/>
          <stop offset="1" stop-color="#5f821c"/>
        </linearGradient>
        <path id="path3921" d="M947.8 201.9c-176.2 72.8-260.5 31.8-336.8-19.5.2-.7.5-2 0-3.2 76.3 51.4 162.7 92.7 338.7 19.9-1.4.8-1.5 1.8-1.9 2.8z" fill="url(#path3921_1_)"/>
        <path id="polygon3923" fill="#8cac42" d="M597.5 186.1l6.3-4.6-86 298.8-6.6 5.2v-.6z"/>
        <linearGradient id="path3932_1_" gradientUnits="userSpaceOnUse" x1="259.489" y1="498.625" x2="249.601" y2="501.46" gradientTransform="matrix(.814 0 0 -.814 356.99 738.789)">
          <stop offset=".282" stop-color="#d3ed89"/>
          <stop offset=".405" stop-color="#d3ed89"/>
          <stop offset="1" stop-color="#5f821c"/>
        </linearGradient>
        <path id="path3932" d="M524.3 483.7c-2.6-1.5-4.6-4.6-7-3.6l86.2-298.4c1.3-.6 4.6-1.7 7.8.7l-87 301.3z" fill="url(#path3932_1_)"/>
        <path id="path3934" class="st58" d="M604.6 179.6l-.9 2.1-6.3 4.5c.6-2 5.4-5.4 6.8-6.5.4 0 .4-.1.4-.1z"/>
        <linearGradient id="path3945_1_" gradientUnits="userSpaceOnUse" x1="312.495" y1="685.887" x2="302.997" y2="686.551" gradientTransform="matrix(.814 0 0 -.814 356.99 738.789)">
          <stop offset="0" stop-color="#7aa922"/>
          <stop offset=".2" stop-color="#d3ed89"/>
          <stop offset=".525" stop-color="#d3ed89"/>
          <stop offset="1" stop-color="#7aa922"/>
        </linearGradient>
        <path id="path3945" d="M611 182.2c-3.3-2-6.3-1-7.6-.4.2-.7.8-2 .8-2 2.8-1.8 4-1.8 6.7-.6.5 1 .6 2 .1 3z" fill="url(#path3945_1_)"/>
        <linearGradient id="polygon3956_1_" gradientUnits="userSpaceOnUse" x1="626.67" y1="469.888" x2="742.518" y2="469.888" gradientTransform="matrix(.814 0 0 -.814 356.99 738.789)">
          <stop offset=".006" stop-color="#7aa922"/>
          <stop offset=".169" stop-color="#1d4a20"/>
          <stop offset=".382" stop-color="#26551b"/>
          <stop offset="1" stop-color="#7aa922"/>
        </linearGradient>
        <path id="polygon3956" opacity=".81" fill="url(#polygon3956_1_)" d="M867.1 503.4l87.1-300 7.2 5.6-87.6 300.2z"/>
        <path id="path3958" d="M875.5 511.4c.2-1.7-1.6-3.1-1.6-3.1l87.3-299.5s1.4 1.3 1.8 2.1l-87.5 300.5z" fill="#476e32"/>
        <path id="path3960" d="M872.6 514.2c-47.1 21.4-91.6 32.4-132.9 36-71.4 8.1-129.2-7.4-176.4-30.6-18.4-8.4-35-18-49.7-27.9l.8-.6c14.9 10 31.1 19.8 48.9 28.5 48 22 107.8 36.6 176.4 30.6 39.1-4.5 82.2-16 129.9-37.1 1.3 1 3 1.1 3 1.1z" fill="#1d3419"/>
        <linearGradient id="path3967_1_" gradientUnits="userSpaceOnUse" x1="627.348" y1="287.108" x2="618.003" y2="287.759" gradientTransform="matrix(.814 0 0 -.814 356.99 738.789)">
          <stop offset="0" stop-color="#7aa922"/>
          <stop offset="1" stop-color="#d3ed89"/>
        </linearGradient>
        <path id="path3967" d="M863 508.6s-3.3-3-2.8-7.4c4.6-1.2 7.5 1.6 7.5 1.6s-.8 4.1-4.7 5.8z" fill="url(#path3967_1_)"/>
        <linearGradient id="path3974_1_" gradientUnits="userSpaceOnUse" x1="631.546" y1="286.26" x2="625.62" y2="279.677" gradientTransform="matrix(.814 0 0 -.814 356.99 738.789)">
          <stop offset="0" stop-color="#5f821c"/>
          <stop offset="1" stop-color="#26551b"/>
        </linearGradient>
        <path id="path3974" d="M867.8 502.8l6.2 5.6s-.9 3.5-4.7 5.1l-6.5-5.5c3.8-1.7 5-5.2 5-5.2z" fill="url(#path3974_1_)"/>
        <linearGradient id="path3983_1_" gradientUnits="userSpaceOnUse" x1="201.24" y1="274.698" x2="622.739" y2="274.698" gradientTransform="matrix(.814 0 0 -.814 356.99 738.789)">
          <stop offset="0" stop-color="#7aa922"/>
          <stop offset=".4" stop-color="#d3ed89"/>
          <stop offset="1" stop-color="#7aa922"/>
        </linearGradient>
        <path id="path3983" d="M861.3 501c-.6 4.4 2.6 7.7 2.6 7.7-176.1 72.8-266.8 30-343.1-21.7 1.3-.9 1.5-.9 2.4-4.1 76.3 51.7 191.6 87.9 338.1 18.1z" fill="url(#path3983_1_)"/>
        <path id="path3985" class="st66" d="M514.4 491.4l6.6-4.4c76.3 49.1 166.4 91.6 342.3 20.8l6.3 5.5c-168.9 74.6-277 33.1-355.2-21.9z"/>
        <path id="path3987" class="st58" d="M875.5 511.4c-.8 1.6-2.4 2.5-2.9 2.8-.1.1-.2.1-.2.1s-1.2.2-2.8-.9c3.5-1.8 4.5-5.7 4.5-5.7s1.9 1.7 1.4 3.7z"/>
        <path id="path3989" class="st66" d="M514.6 491.3l-.8.6s-4.3-2.3-2.7-7c.5 4.7 3.5 6.4 3.5 6.4z"/>
        <linearGradient id="path4000_1_" gradientUnits="userSpaceOnUse" x1="198.799" y1="306.942" x2="192.146" y2="314.333" gradientTransform="matrix(.814 0 0 -.814 356.99 738.789)">
          <stop offset="0" stop-color="#1d3a19"/>
          <stop offset=".1" stop-color="#26551b"/>
          <stop offset=".65" stop-color="#7aa922"/>
          <stop offset="1" stop-color="#d3ed89"/>
        </linearGradient>
        <path id="path4000" d="M511.2 484.9l6.4-5c-.4 4.8 3.7 6.8 3.7 6.8l-6.4 5s-4-2-3.7-6.8z" fill="url(#path4000_1_)"/>
        <linearGradient id="path4011_1_" gradientUnits="userSpaceOnUse" x1="198.589" y1="318.87" x2="203.44" y2="310.118" gradientTransform="matrix(.814 0 0 -.814 356.99 738.789)">
          <stop offset="0" stop-color="#5f821c"/>
          <stop offset=".405" stop-color="#7aa922"/>
          <stop offset=".8" stop-color="#5f821c"/>
          <stop offset="1" stop-color="#5f821c"/>
        </linearGradient>
        <path id="path4011" d="M517.4 479.9c2.2-.7 4.1 1.6 6.8 3.7-.9 3.1-1.6 2.5-3 3.5-1.6-.9-4.2-3.2-3.8-7.2z" fill="url(#path4011_1_)"/>
        <linearGradient id="path4018_1_" gradientUnits="userSpaceOnUse" x1="737.696" y1="654.133" x2="739.075" y2="658.827" gradientTransform="matrix(.814 0 0 -.814 356.99 738.789)">
          <stop offset="0" stop-color="#5b7f30"/>
          <stop offset="1" stop-color="#d3ed89"/>
        </linearGradient>
        <path id="path4018" d="M961.9 205.9c.1 1.1-.7 3-.7 3l-6.8-5.4s1-2.2.5-3.9c2.3.9 6.7 5.7 7 6.3z" opacity=".72" fill="url(#path4018_1_)"/>
        <linearGradient id="path4034_1_" gradientUnits="userSpaceOnUse" x1="681.484" y1="473.31" x2="671.672" y2="476.123" gradientTransform="matrix(.814 0 0 -.814 356.99 738.789)">
          <stop offset="0" stop-color="#5f821c"/>
          <stop offset="1" stop-color="#75c146"/>
        </linearGradient>
        <path id="path4034" d="M860.5 501.8l87.1-299.9c4.8-.9 7 1.8 7 1.8l-86.9 299.2c.1-.1-3.5-2.7-7.2-1.1z" opacity=".72" fill="url(#path4034_1_)"/>
        <linearGradient id="path4041_1_" gradientUnits="userSpaceOnUse" x1="725.81" y1="656.025" x2="744.835" y2="656.025" gradientTransform="matrix(.814 0 0 -.814 356.99 738.789)">
          <stop offset="0" stop-color="#d3ed89"/>
          <stop offset="1" stop-color="#5f821c"/>
        </linearGradient>
        <path id="path4041" d="M947.8 201.9c.2-1.1.4-1.7 1.5-2.7.9-.5 4.6-1.1 7.5 1.6 3 2.7 7.5 5.8 6.1 10-.4-.9-1.7-2-1.7-2l-6.6-5.2c0 .1-2.1-2.5-6.8-1.7z" opacity=".6" fill="url(#path4041_1_)"/>
        <linearGradient id="path4057_1_" gradientUnits="userSpaceOnUse" x1="737.704" y1="654.162" x2="739.083" y2="658.856" gradientTransform="matrix(.814 0 0 -.814 356.99 738.789)">
          <stop offset="0" stop-color="#5b7f30"/>
          <stop offset="1" stop-color="#d3ed89"/>
        </linearGradient>
        <path id="path4057" d="M961.9 205.9c.1 1.1-.7 3-.7 3l-6.8-5.4s1-2.2.5-3.9c2.3.9 6.7 5.7 7 6.3z" opacity=".72" fill="url(#path4057_1_)"/>
        <linearGradient id="path4064_1_" gradientUnits="userSpaceOnUse" x1="725.81" y1="656.025" x2="744.861" y2="656.025" gradientTransform="matrix(.814 0 0 -.814 356.99 738.789)">
          <stop offset="0" stop-color="#d3ed89"/>
          <stop offset="1" stop-color="#5f821c"/>
        </linearGradient>
        <path id="path4064" d="M947.8 201.9c.2-1.1.4-1.7 1.6-2.7.9-.5 4.6-1.1 7.5 1.6 3 2.7 7.6 5.8 6.2 10-.4-.9-1.7-2-1.7-2l-6.6-5.3c-.1.2-2.3-2.4-7-1.6z" opacity=".6" fill="url(#path4064_1_)"/>
      </g>
    </g>
  </g>
</svg>
